<svg xmlns="http://www.w3.org/2000/svg" viewBox="0 0 800 600" width="800" height="600"><defs><radialGradient id="v" cx=".5" cy=".5" r=".7"><stop offset=".6" stop-color="#000" stop-opacity="0"/><stop offset="1" stop-color="#3b1f05" stop-opacity=".45"/></radialGradient></defs><rect width="800" height="600" fill="#d08a1e"/><polygon points="1.5,2.4 -20.0,14.8 -41.5,2.4 -41.5,-22.4 -20.0,-34.8 1.5,-22.4" fill="#f3d88c" stroke="#c9861a" stroke-width="1.6"/><polygon points="46.5,2.4 25.0,14.8 3.6,2.4 3.6,-22.4 25.0,-34.8 46.5,-22.4" fill="#f3d88c" stroke="#c9861a" stroke-width="1.6"/><polygon points="91.5,2.4 70.1,14.8 48.6,2.4 48.6,-22.4 70.1,-34.8 91.5,-22.4" fill="#f3d88c" stroke="#c9861a" stroke-width="1.6"/><polygon points="136.6,2.4 115.1,14.8 93.6,2.4 93.6,-22.4 115.1,-34.8 136.6,-22.4" fill="#f3d88c" stroke="#c9861a" stroke-width="1.6"/><polygon points="181.6,2.4 160.1,14.8 138.7,2.4 138.7,-22.4 160.1,-34.8 181.6,-22.4" fill="#f3d88c" stroke="#c9861a" stroke-width="1.6"/><polygon points="226.6,2.4 205.2,14.8 183.7,2.4 183.7,-22.4 205.2,-34.8 226.6,-22.4" fill="#e9a126" stroke="#c9861a" stroke-width="1.6"/><ellipse cx="198.7" cy="-17.8" rx="5.7" ry="3.1" fill="#fff" fill-opacity=".45"/><polygon points="271.7,2.4 250.2,14.8 228.7,2.4 228.7,-22.4 250.2,-34.8 271.7,-22.4" fill="#e9a126" stroke="#c9861a" stroke-width="1.6"/><ellipse cx="243.7" cy="-17.8" rx="5.7" ry="3.1" fill="#fff" fill-opacity=".45"/><polygon points="316.7,2.4 295.2,14.8 273.8,2.4 273.8,-22.4 295.2,-34.8 316.7,-22.4" fill="#f3d88c" stroke="#c9861a" stroke-width="1.6"/><polygon points="361.7,2.4 340.3,14.8 318.8,2.4 318.8,-22.4 340.3,-34.8 361.7,-22.4" fill="#f3d88c" stroke="#c9861a" stroke-width="1.6"/><polygon points="406.8,2.4 385.3,14.8 363.8,2.4 363.8,-22.4 385.3,-34.8 406.8,-22.4" fill="#f3d88c" stroke="#c9861a" stroke-width="1.6"/><polygon points="451.8,2.4 430.3,14.8 408.9,2.4 408.9,-22.4 430.3,-34.8 451.8,-22.4" fill="#f3d88c" stroke="#c9861a" stroke-width="1.6"/><polygon points="496.8,2.4 475.4,14.8 453.9,2.4 453.9,-22.4 475.4,-34.8 496.8,-22.4" fill="#f3d88c" stroke="#c9861a" stroke-width="1.6"/><polygon points="541.9,2.4 520.4,14.8 498.9,2.4 498.9,-22.4 520.4,-34.8 541.9,-22.4" fill="#e9a126" stroke="#c9861a" stroke-width="1.6"/><ellipse cx="513.9" cy="-17.8" rx="5.7" ry="3.1" fill="#fff" fill-opacity=".45"/><polygon points="586.9,2.4 565.4,14.8 544.0,2.4 544.0,-22.4 565.4,-34.8 586.9,-22.4" fill="#e9a126" stroke="#c9861a" stroke-width="1.6"/><ellipse cx="558.9" cy="-17.8" rx="5.7" ry="3.1" fill="#fff" fill-opacity=".45"/><polygon points="631.9,2.4 610.5,14.8 589.0,2.4 589.0,-22.4 610.5,-34.8 631.9,-22.4" fill="#f3d88c" stroke="#c9861a" stroke-width="1.6"/><polygon points="677.0,2.4 655.5,14.8 634.0,2.4 634.0,-22.4 655.5,-34.8 677.0,-22.4" fill="#f3d88c" stroke="#c9861a" stroke-width="1.6"/><polygon points="722.0,2.4 700.5,14.8 679.1,2.4 679.1,-22.4 700.5,-34.8 722.0,-22.4" fill="#f3d88c" stroke="#c9861a" stroke-width="1.6"/><polygon points="767.0,2.4 745.6,14.8 724.1,2.4 724.1,-22.4 745.6,-34.8 767.0,-22.4" fill="#f3d88c" stroke="#c9861a" stroke-width="1.6"/><polygon points="812.1,2.4 790.6,14.8 769.1,2.4 769.1,-22.4 790.6,-34.8 812.1,-22.4" fill="#f3d88c" stroke="#c9861a" stroke-width="1.6"/><polygon points="857.1,2.4 835.6,14.8 814.2,2.4 814.2,-22.4 835.6,-34.8 857.1,-22.4" fill="#e9a126" stroke="#c9861a" stroke-width="1.6"/><ellipse cx="829.1" cy="-17.8" rx="5.7" ry="3.1" fill="#fff" fill-opacity=".45"/><polygon points="24.0,41.4 2.5,53.8 -19.0,41.4 -19.0,16.6 2.5,4.2 24.0,16.6" fill="#f3d88c" stroke="#c9861a" stroke-width="1.6"/><polygon points="69.0,41.4 47.5,53.8 26.1,41.4 26.1,16.6 47.5,4.2 69.0,16.6" fill="#f3d88c" stroke="#c9861a" stroke-width="1.6"/><polygon points="114.1,41.4 92.6,53.8 71.1,41.4 71.1,16.6 92.6,4.2 114.1,16.6" fill="#f3d88c" stroke="#c9861a" stroke-width="1.6"/><polygon points="159.1,41.4 137.6,53.8 116.1,41.4 116.1,16.6 137.6,4.2 159.1,16.6" fill="#e9a126" stroke="#c9861a" stroke-width="1.6"/><ellipse cx="131.1" cy="21.2" rx="5.7" ry="3.1" fill="#fff" fill-opacity=".45"/><polygon points="204.1,41.4 182.6,53.8 161.2,41.4 161.2,16.6 182.6,4.2 204.1,16.6" fill="#e9a126" stroke="#c9861a" stroke-width="1.6"/><ellipse cx="176.1" cy="21.2" rx="5.7" ry="3.1" fill="#fff" fill-opacity=".45"/><polygon points="249.2,41.4 227.7,53.8 206.2,41.4 206.2,16.6 227.7,4.2 249.2,16.6" fill="#f3d88c" stroke="#c9861a" stroke-width="1.6"/><polygon points="294.2,41.4 272.7,53.8 251.2,41.4 251.2,16.6 272.7,4.2 294.2,16.6" fill="#f3d88c" stroke="#c9861a" stroke-width="1.6"/><polygon points="339.2,41.4 317.7,53.8 296.3,41.4 296.3,16.6 317.7,4.2 339.2,16.6" fill="#f3d88c" stroke="#c9861a" stroke-width="1.6"/><polygon points="384.3,41.4 362.8,53.8 341.3,41.4 341.3,16.6 362.8,4.2 384.3,16.6" fill="#f3d88c" stroke="#c9861a" stroke-width="1.6"/><polygon points="429.3,41.4 407.8,53.8 386.3,41.4 386.3,16.6 407.8,4.2 429.3,16.6" fill="#f3d88c" stroke="#c9861a" stroke-width="1.6"/><polygon points="474.3,41.4 452.8,53.8 431.4,41.4 431.4,16.6 452.8,4.2 474.3,16.6" fill="#e9a126" stroke="#c9861a" stroke-width="1.6"/><ellipse cx="446.3" cy="21.2" rx="5.7" ry="3.1" fill="#fff" fill-opacity=".45"/><polygon points="519.4,41.4 497.9,53.8 476.4,41.4 476.4,16.6 497.9,4.2 519.4,16.6" fill="#e9a126" stroke="#c9861a" stroke-width="1.6"/><ellipse cx="491.4" cy="21.2" rx="5.7" ry="3.1" fill="#fff" fill-opacity=".45"/><polygon points="564.4,41.4 542.9,53.8 521.4,41.4 521.4,16.6 542.9,4.2 564.4,16.6" fill="#f3d88c" stroke="#c9861a" stroke-width="1.6"/><polygon points="609.4,41.4 587.9,53.8 566.5,41.4 566.5,16.6 587.9,4.2 609.4,16.6" fill="#f3d88c" stroke="#c9861a" stroke-width="1.6"/><polygon points="654.5,41.4 633.0,53.8 611.5,41.4 611.5,16.6 633.0,4.2 654.5,16.6" fill="#f3d88c" stroke="#c9861a" stroke-width="1.6"/><polygon points="699.5,41.4 678.0,53.8 656.5,41.4 656.5,16.6 678.0,4.2 699.5,16.6" fill="#f3d88c" stroke="#c9861a" stroke-width="1.6"/><polygon points="744.5,41.4 723.0,53.8 701.6,41.4 701.6,16.6 723.0,4.2 744.5,16.6" fill="#f3d88c" stroke="#c9861a" stroke-width="1.6"/><polygon points="789.6,41.4 768.1,53.8 746.6,41.4 746.6,16.6 768.1,4.2 789.6,16.6" fill="#e9a126" stroke="#c9861a" stroke-width="1.6"/><ellipse cx="761.6" cy="21.2" rx="5.7" ry="3.1" fill="#fff" fill-opacity=".45"/><polygon points="834.6,41.4 813.1,53.8 791.6,41.4 791.6,16.6 813.1,4.2 834.6,16.6" fill="#e9a126" stroke="#c9861a" stroke-width="1.6"/><ellipse cx="806.6" cy="21.2" rx="5.7" ry="3.1" fill="#fff" fill-opacity=".45"/><polygon points="879.6,41.4 858.1,53.8 836.7,41.4 836.7,16.6 858.1,4.2 879.6,16.6" fill="#f3d88c" stroke="#c9861a" stroke-width="1.6"/><polygon points="1.5,80.4 -20.0,92.8 -41.5,80.4 -41.5,55.6 -20.0,43.2 1.5,55.6" fill="#f3d88c" stroke="#c9861a" stroke-width="1.6"/><polygon points="46.5,80.4 25.0,92.8 3.6,80.4 3.6,55.6 25.0,43.2 46.5,55.6" fill="#e9a126" stroke="#c9861a" stroke-width="1.6"/><ellipse cx="18.5" cy="60.2" rx="5.7" ry="3.1" fill="#fff" fill-opacity=".45"/><polygon points="91.5,80.4 70.1,92.8 48.6,80.4 48.6,55.6 70.1,43.2 91.5,55.6" fill="#e9a126" stroke="#c9861a" stroke-width="1.6"/><ellipse cx="63.6" cy="60.2" rx="5.7" ry="3.1" fill="#fff" fill-opacity=".45"/><polygon points="136.6,80.4 115.1,92.8 93.6,80.4 93.6,55.6 115.1,43.2 136.6,55.6" fill="#f3d88c" stroke="#c9861a" stroke-width="1.6"/><polygon points="181.6,80.4 160.1,92.8 138.7,80.4 138.7,55.6 160.1,43.2 181.6,55.6" fill="#f3d88c" stroke="#c9861a" stroke-width="1.6"/><polygon points="226.6,80.4 205.2,92.8 183.7,80.4 183.7,55.6 205.2,43.2 226.6,55.6" fill="#f3d88c" stroke="#c9861a" stroke-width="1.6"/><polygon points="271.7,80.4 250.2,92.8 228.7,80.4 228.7,55.6 250.2,43.2 271.7,55.6" fill="#f3d88c" stroke="#c9861a" stroke-width="1.6"/><polygon points="316.7,80.4 295.2,92.8 273.8,80.4 273.8,55.6 295.2,43.2 316.7,55.6" fill="#f3d88c" stroke="#c9861a" stroke-width="1.6"/><polygon points="361.7,80.4 340.3,92.8 318.8,80.4 318.8,55.6 340.3,43.2 361.7,55.6" fill="#e9a126" stroke="#c9861a" stroke-width="1.6"/><ellipse cx="333.8" cy="60.2" rx="5.7" ry="3.1" fill="#fff" fill-opacity=".45"/><polygon points="406.8,80.4 385.3,92.8 363.8,80.4 363.8,55.6 385.3,43.2 406.8,55.6" fill="#e9a126" stroke="#c9861a" stroke-width="1.6"/><ellipse cx="378.8" cy="60.2" rx="5.7" ry="3.1" fill="#fff" fill-opacity=".45"/><polygon points="451.8,80.4 430.3,92.8 408.9,80.4 408.9,55.6 430.3,43.2 451.8,55.6" fill="#f3d88c" stroke="#c9861a" stroke-width="1.6"/><polygon points="496.8,80.4 475.4,92.8 453.9,80.4 453.9,55.6 475.4,43.2 496.8,55.6" fill="#f3d88c" stroke="#c9861a" stroke-width="1.6"/><polygon points="541.9,80.4 520.4,92.8 498.9,80.4 498.9,55.6 520.4,43.2 541.9,55.6" fill="#f3d88c" stroke="#c9861a" stroke-width="1.6"/><polygon points="586.9,80.4 565.4,92.8 544.0,80.4 544.0,55.6 565.4,43.2 586.9,55.6" fill="#f3d88c" stroke="#c9861a" stroke-width="1.6"/><polygon points="631.9,80.4 610.5,92.8 589.0,80.4 589.0,55.6 610.5,43.2 631.9,55.6" fill="#f3d88c" stroke="#c9861a" stroke-width="1.6"/><polygon points="677.0,80.4 655.5,92.8 634.0,80.4 634.0,55.6 655.5,43.2 677.0,55.6" fill="#e9a126" stroke="#c9861a" stroke-width="1.6"/><ellipse cx="649.0" cy="60.2" rx="5.7" ry="3.1" fill="#fff" fill-opacity=".45"/><polygon points="722.0,80.4 700.5,92.8 679.1,80.4 679.1,55.6 700.5,43.2 722.0,55.6" fill="#e9a126" stroke="#c9861a" stroke-width="1.6"/><ellipse cx="694.0" cy="60.2" rx="5.7" ry="3.1" fill="#fff" fill-opacity=".45"/><polygon points="767.0,80.4 745.6,92.8 724.1,80.4 724.1,55.6 745.6,43.2 767.0,55.6" fill="#f3d88c" stroke="#c9861a" stroke-width="1.6"/><polygon points="812.1,80.4 790.6,92.8 769.1,80.4 769.1,55.6 790.6,43.2 812.1,55.6" fill="#f3d88c" stroke="#c9861a" stroke-width="1.6"/><polygon points="857.1,80.4 835.6,92.8 814.2,80.4 814.2,55.6 835.6,43.2 857.1,55.6" fill="#f3d88c" stroke="#c9861a" stroke-width="1.6"/><polygon points="24.0,119.4 2.5,131.8 -19.0,119.4 -19.0,94.6 2.5,82.2 24.0,94.6" fill="#e9a126" stroke="#c9861a" stroke-width="1.6"/><ellipse cx="-4.0" cy="99.2" rx="5.7" ry="3.1" fill="#fff" fill-opacity=".45"/><polygon points="69.0,119.4 47.5,131.8 26.1,119.4 26.1,94.6 47.5,82.2 69.0,94.6" fill="#f3d88c" stroke="#c9861a" stroke-width="1.6"/><polygon points="114.1,119.4 92.6,131.8 71.1,119.4 71.1,94.6 92.6,82.2 114.1,94.6" fill="#f3d88c" stroke="#c9861a" stroke-width="1.6"/><polygon points="159.1,119.4 137.6,131.8 116.1,119.4 116.1,94.6 137.6,82.2 159.1,94.6" fill="#f3d88c" stroke="#c9861a" stroke-width="1.6"/><polygon points="204.1,119.4 182.6,131.8 161.2,119.4 161.2,94.6 182.6,82.2 204.1,94.6" fill="#f3d88c" stroke="#c9861a" stroke-width="1.6"/><polygon points="249.2,119.4 227.7,131.8 206.2,119.4 206.2,94.6 227.7,82.2 249.2,94.6" fill="#f3d88c" stroke="#c9861a" stroke-width="1.6"/><polygon points="294.2,119.4 272.7,131.8 251.2,119.4 251.2,94.6 272.7,82.2 294.2,94.6" fill="#e9a126" stroke="#c9861a" stroke-width="1.6"/><ellipse cx="266.2" cy="99.2" rx="5.7" ry="3.1" fill="#fff" fill-opacity=".45"/><polygon points="339.2,119.4 317.7,131.8 296.3,119.4 296.3,94.6 317.7,82.2 339.2,94.6" fill="#e9a126" stroke="#c9861a" stroke-width="1.6"/><ellipse cx="311.2" cy="99.2" rx="5.7" ry="3.1" fill="#fff" fill-opacity=".45"/><polygon points="384.3,119.4 362.8,131.8 341.3,119.4 341.3,94.6 362.8,82.2 384.3,94.6" fill="#f3d88c" stroke="#c9861a" stroke-width="1.6"/><polygon points="429.3,119.4 407.8,131.8 386.3,119.4 386.3,94.6 407.8,82.2 429.3,94.6" fill="#f3d88c" stroke="#c9861a" stroke-width="1.6"/><polygon points="474.3,119.4 452.8,131.8 431.4,119.4 431.4,94.6 452.8,82.2 474.3,94.6" fill="#f3d88c" stroke="#c9861a" stroke-width="1.6"/><polygon points="519.4,119.4 497.9,131.8 476.4,119.4 476.4,94.6 497.9,82.2 519.4,94.6" fill="#f3d88c" stroke="#c9861a" stroke-width="1.6"/><polygon points="564.4,119.4 542.9,131.8 521.4,119.4 521.4,94.6 542.9,82.2 564.4,94.6" fill="#f3d88c" stroke="#c9861a" stroke-width="1.6"/><polygon points="609.4,119.4 587.9,131.8 566.5,119.4 566.5,94.6 587.9,82.2 609.4,94.6" fill="#e9a126" stroke="#c9861a" stroke-width="1.6"/><ellipse cx="581.4" cy="99.2" rx="5.7" ry="3.1" fill="#fff" fill-opacity=".45"/><polygon points="654.5,119.4 633.0,131.8 611.5,119.4 611.5,94.6 633.0,82.2 654.5,94.6" fill="#e9a126" stroke="#c9861a" stroke-width="1.6"/><ellipse cx="626.5" cy="99.2" rx="5.7" ry="3.1" fill="#fff" fill-opacity=".45"/><polygon points="699.5,119.4 678.0,131.8 656.5,119.4 656.5,94.6 678.0,82.2 699.5,94.6" fill="#f3d88c" stroke="#c9861a" stroke-width="1.6"/><polygon points="744.5,119.4 723.0,131.8 701.6,119.4 701.6,94.6 723.0,82.2 744.5,94.6" fill="#f3d88c" stroke="#c9861a" stroke-width="1.6"/><polygon points="789.6,119.4 768.1,131.8 746.6,119.4 746.6,94.6 768.1,82.2 789.6,94.6" fill="#f3d88c" stroke="#c9861a" stroke-width="1.6"/><polygon points="834.6,119.4 813.1,131.8 791.6,119.4 791.6,94.6 813.1,82.2 834.6,94.6" fill="#f3d88c" stroke="#c9861a" stroke-width="1.6"/><polygon points="879.6,119.4 858.1,131.8 836.7,119.4 836.7,94.6 858.1,82.2 879.6,94.6" fill="#f3d88c" stroke="#c9861a" stroke-width="1.6"/><polygon points="1.5,158.4 -20.0,170.8 -41.5,158.4 -41.5,133.6 -20.0,121.2 1.5,133.6" fill="#f3d88c" stroke="#c9861a" stroke-width="1.6"/><polygon points="46.5,158.4 25.0,170.8 3.6,158.4 3.6,133.6 25.0,121.2 46.5,133.6" fill="#f3d88c" stroke="#c9861a" stroke-width="1.6"/><polygon points="91.5,158.4 70.1,170.8 48.6,158.4 48.6,133.6 70.1,121.2 91.5,133.6" fill="#f3d88c" stroke="#c9861a" stroke-width="1.6"/><polygon points="136.6,158.4 115.1,170.8 93.6,158.4 93.6,133.6 115.1,121.2 136.6,133.6" fill="#f3d88c" stroke="#c9861a" stroke-width="1.6"/><polygon points="181.6,158.4 160.1,170.8 138.7,158.4 138.7,133.6 160.1,121.2 181.6,133.6" fill="#e9a126" stroke="#c9861a" stroke-width="1.6"/><ellipse cx="153.6" cy="138.2" rx="5.7" ry="3.1" fill="#fff" fill-opacity=".45"/><polygon points="226.6,158.4 205.2,170.8 183.7,158.4 183.7,133.6 205.2,121.2 226.6,133.6" fill="#e9a126" stroke="#c9861a" stroke-width="1.6"/><ellipse cx="198.7" cy="138.2" rx="5.7" ry="3.1" fill="#fff" fill-opacity=".45"/><polygon points="271.7,158.4 250.2,170.8 228.7,158.4 228.7,133.6 250.2,121.2 271.7,133.6" fill="#f3d88c" stroke="#c9861a" stroke-width="1.6"/><polygon points="316.7,158.4 295.2,170.8 273.8,158.4 273.8,133.6 295.2,121.2 316.7,133.6" fill="#f3d88c" stroke="#c9861a" stroke-width="1.6"/><polygon points="361.7,158.4 340.3,170.8 318.8,158.4 318.8,133.6 340.3,121.2 361.7,133.6" fill="#f3d88c" stroke="#c9861a" stroke-width="1.6"/><polygon points="406.8,158.4 385.3,170.8 363.8,158.4 363.8,133.6 385.3,121.2 406.8,133.6" fill="#f3d88c" stroke="#c9861a" stroke-width="1.6"/><polygon points="451.8,158.4 430.3,170.8 408.9,158.4 408.9,133.6 430.3,121.2 451.8,133.6" fill="#f3d88c" stroke="#c9861a" stroke-width="1.6"/><polygon points="496.8,158.4 475.4,170.8 453.9,158.4 453.9,133.6 475.4,121.2 496.8,133.6" fill="#e9a126" stroke="#c9861a" stroke-width="1.6"/><ellipse cx="468.9" cy="138.2" rx="5.7" ry="3.1" fill="#fff" fill-opacity=".45"/><polygon points="541.9,158.4 520.4,170.8 498.9,158.4 498.9,133.6 520.4,121.2 541.9,133.6" fill="#e9a126" stroke="#c9861a" stroke-width="1.6"/><ellipse cx="513.9" cy="138.2" rx="5.7" ry="3.1" fill="#fff" fill-opacity=".45"/><polygon points="586.9,158.4 565.4,170.8 544.0,158.4 544.0,133.6 565.4,121.2 586.9,133.6" fill="#f3d88c" stroke="#c9861a" stroke-width="1.6"/><polygon points="631.9,158.4 610.5,170.8 589.0,158.4 589.0,133.6 610.5,121.2 631.9,133.6" fill="#f3d88c" stroke="#c9861a" stroke-width="1.6"/><polygon points="677.0,158.4 655.5,170.8 634.0,158.4 634.0,133.6 655.5,121.2 677.0,133.6" fill="#f3d88c" stroke="#c9861a" stroke-width="1.6"/><polygon points="722.0,158.4 700.5,170.8 679.1,158.4 679.1,133.6 700.5,121.2 722.0,133.6" fill="#f3d88c" stroke="#c9861a" stroke-width="1.6"/><polygon points="767.0,158.4 745.6,170.8 724.1,158.4 724.1,133.6 745.6,121.2 767.0,133.6" fill="#f3d88c" stroke="#c9861a" stroke-width="1.6"/><polygon points="812.1,158.4 790.6,170.8 769.1,158.4 769.1,133.6 790.6,121.2 812.1,133.6" fill="#e9a126" stroke="#c9861a" stroke-width="1.6"/><ellipse cx="784.1" cy="138.2" rx="5.7" ry="3.1" fill="#fff" fill-opacity=".45"/><polygon points="857.1,158.4 835.6,170.8 814.2,158.4 814.2,133.6 835.6,121.2 857.1,133.6" fill="#e9a126" stroke="#c9861a" stroke-width="1.6"/><ellipse cx="829.1" cy="138.2" rx="5.7" ry="3.1" fill="#fff" fill-opacity=".45"/><polygon points="24.0,197.4 2.5,209.8 -19.0,197.4 -19.0,172.6 2.5,160.2 24.0,172.6" fill="#f3d88c" stroke="#c9861a" stroke-width="1.6"/><polygon points="69.0,197.4 47.5,209.8 26.1,197.4 26.1,172.6 47.5,160.2 69.0,172.6" fill="#f3d88c" stroke="#c9861a" stroke-width="1.6"/><polygon points="114.1,197.4 92.6,209.8 71.1,197.4 71.1,172.6 92.6,160.2 114.1,172.6" fill="#e9a126" stroke="#c9861a" stroke-width="1.6"/><ellipse cx="86.1" cy="177.2" rx="5.7" ry="3.1" fill="#fff" fill-opacity=".45"/><polygon points="159.1,197.4 137.6,209.8 116.1,197.4 116.1,172.6 137.6,160.2 159.1,172.6" fill="#e9a126" stroke="#c9861a" stroke-width="1.6"/><ellipse cx="131.1" cy="177.2" rx="5.7" ry="3.1" fill="#fff" fill-opacity=".45"/><polygon points="204.1,197.4 182.6,209.8 161.2,197.4 161.2,172.6 182.6,160.2 204.1,172.6" fill="#f3d88c" stroke="#c9861a" stroke-width="1.6"/><polygon points="249.2,197.4 227.7,209.8 206.2,197.4 206.2,172.6 227.7,160.2 249.2,172.6" fill="#f3d88c" stroke="#c9861a" stroke-width="1.6"/><polygon points="294.2,197.4 272.7,209.8 251.2,197.4 251.2,172.6 272.7,160.2 294.2,172.6" fill="#f3d88c" stroke="#c9861a" stroke-width="1.6"/><polygon points="339.2,197.4 317.7,209.8 296.3,197.4 296.3,172.6 317.7,160.2 339.2,172.6" fill="#f3d88c" stroke="#c9861a" stroke-width="1.6"/><polygon points="384.3,197.4 362.8,209.8 341.3,197.4 341.3,172.6 362.8,160.2 384.3,172.6" fill="#f3d88c" stroke="#c9861a" stroke-width="1.6"/><polygon points="429.3,197.4 407.8,209.8 386.3,197.4 386.3,172.6 407.8,160.2 429.3,172.6" fill="#e9a126" stroke="#c9861a" stroke-width="1.6"/><ellipse cx="401.3" cy="177.2" rx="5.7" ry="3.1" fill="#fff" fill-opacity=".45"/><polygon points="474.3,197.4 452.8,209.8 431.4,197.4 431.4,172.6 452.8,160.2 474.3,172.6" fill="#e9a126" stroke="#c9861a" stroke-width="1.6"/><ellipse cx="446.3" cy="177.2" rx="5.7" ry="3.1" fill="#fff" fill-opacity=".45"/><polygon points="519.4,197.4 497.9,209.8 476.4,197.4 476.4,172.6 497.9,160.2 519.4,172.6" fill="#f3d88c" stroke="#c9861a" stroke-width="1.6"/><polygon points="564.4,197.4 542.9,209.8 521.4,197.4 521.4,172.6 542.9,160.2 564.4,172.6" fill="#f3d88c" stroke="#c9861a" stroke-width="1.6"/><polygon points="609.4,197.4 587.9,209.8 566.5,197.4 566.5,172.6 587.9,160.2 609.4,172.6" fill="#f3d88c" stroke="#c9861a" stroke-width="1.6"/><polygon points="654.5,197.4 633.0,209.8 611.5,197.4 611.5,172.6 633.0,160.2 654.5,172.6" fill="#f3d88c" stroke="#c9861a" stroke-width="1.6"/><polygon points="699.5,197.4 678.0,209.8 656.5,197.4 656.5,172.6 678.0,160.2 699.5,172.6" fill="#f3d88c" stroke="#c9861a" stroke-width="1.6"/><polygon points="744.5,197.4 723.0,209.8 701.6,197.4 701.6,172.6 723.0,160.2 744.5,172.6" fill="#e9a126" stroke="#c9861a" stroke-width="1.6"/><ellipse cx="716.5" cy="177.2" rx="5.7" ry="3.1" fill="#fff" fill-opacity=".45"/><polygon points="789.6,197.4 768.1,209.8 746.6,197.4 746.6,172.6 768.1,160.2 789.6,172.6" fill="#e9a126" stroke="#c9861a" stroke-width="1.6"/><ellipse cx="761.6" cy="177.2" rx="5.7" ry="3.1" fill="#fff" fill-opacity=".45"/><polygon points="834.6,197.4 813.1,209.8 791.6,197.4 791.6,172.6 813.1,160.2 834.6,172.6" fill="#f3d88c" stroke="#c9861a" stroke-width="1.6"/><polygon points="879.6,197.4 858.1,209.8 836.7,197.4 836.7,172.6 858.1,160.2 879.6,172.6" fill="#f3d88c" stroke="#c9861a" stroke-width="1.6"/><polygon points="1.5,236.4 -20.0,248.8 -41.5,236.4 -41.5,211.6 -20.0,199.2 1.5,211.6" fill="#e9a126" stroke="#c9861a" stroke-width="1.6"/><ellipse cx="-26.5" cy="216.2" rx="5.7" ry="3.1" fill="#fff" fill-opacity=".45"/><polygon points="46.5,236.4 25.0,248.8 3.6,236.4 3.6,211.6 25.0,199.2 46.5,211.6" fill="#e9a126" stroke="#c9861a" stroke-width="1.6"/><ellipse cx="18.5" cy="216.2" rx="5.7" ry="3.1" fill="#fff" fill-opacity=".45"/><polygon points="91.5,236.4 70.1,248.8 48.6,236.4 48.6,211.6 70.1,199.2 91.5,211.6" fill="#f3d88c" stroke="#c9861a" stroke-width="1.6"/><polygon points="136.6,236.4 115.1,248.8 93.6,236.4 93.6,211.6 115.1,199.2 136.6,211.6" fill="#f3d88c" stroke="#c9861a" stroke-width="1.6"/><polygon points="181.6,236.4 160.1,248.8 138.7,236.4 138.7,211.6 160.1,199.2 181.6,211.6" fill="#f3d88c" stroke="#c9861a" stroke-width="1.6"/><polygon points="226.6,236.4 205.2,248.8 183.7,236.4 183.7,211.6 205.2,199.2 226.6,211.6" fill="#f3d88c" stroke="#c9861a" stroke-width="1.6"/><polygon points="271.7,236.4 250.2,248.8 228.7,236.4 228.7,211.6 250.2,199.2 271.7,211.6" fill="#f3d88c" stroke="#c9861a" stroke-width="1.6"/><polygon points="316.7,236.4 295.2,248.8 273.8,236.4 273.8,211.6 295.2,199.2 316.7,211.6" fill="#e9a126" stroke="#c9861a" stroke-width="1.6"/><ellipse cx="288.7" cy="216.2" rx="5.7" ry="3.1" fill="#fff" fill-opacity=".45"/><polygon points="361.7,236.4 340.3,248.8 318.8,236.4 318.8,211.6 340.3,199.2 361.7,211.6" fill="#e9a126" stroke="#c9861a" stroke-width="1.6"/><ellipse cx="333.8" cy="216.2" rx="5.7" ry="3.1" fill="#fff" fill-opacity=".45"/><polygon points="406.8,236.4 385.3,248.8 363.8,236.4 363.8,211.6 385.3,199.2 406.8,211.6" fill="#f3d88c" stroke="#c9861a" stroke-width="1.6"/><polygon points="451.8,236.4 430.3,248.8 408.9,236.4 408.9,211.6 430.3,199.2 451.8,211.6" fill="#f3d88c" stroke="#c9861a" stroke-width="1.6"/><polygon points="496.8,236.4 475.4,248.8 453.9,236.4 453.9,211.6 475.4,199.2 496.8,211.6" fill="#f3d88c" stroke="#c9861a" stroke-width="1.6"/><polygon points="541.9,236.4 520.4,248.8 498.9,236.4 498.9,211.6 520.4,199.2 541.9,211.6" fill="#f3d88c" stroke="#c9861a" stroke-width="1.6"/><polygon points="586.9,236.4 565.4,248.8 544.0,236.4 544.0,211.6 565.4,199.2 586.9,211.6" fill="#f3d88c" stroke="#c9861a" stroke-width="1.6"/><polygon points="631.9,236.4 610.5,248.8 589.0,236.4 589.0,211.6 610.5,199.2 631.9,211.6" fill="#e9a126" stroke="#c9861a" stroke-width="1.6"/><ellipse cx="604.0" cy="216.2" rx="5.7" ry="3.1" fill="#fff" fill-opacity=".45"/><polygon points="677.0,236.4 655.5,248.8 634.0,236.4 634.0,211.6 655.5,199.2 677.0,211.6" fill="#e9a126" stroke="#c9861a" stroke-width="1.6"/><ellipse cx="649.0" cy="216.2" rx="5.7" ry="3.1" fill="#fff" fill-opacity=".45"/><polygon points="722.0,236.4 700.5,248.8 679.1,236.4 679.1,211.6 700.5,199.2 722.0,211.6" fill="#f3d88c" stroke="#c9861a" stroke-width="1.6"/><polygon points="767.0,236.4 745.6,248.8 724.1,236.4 724.1,211.6 745.6,199.2 767.0,211.6" fill="#f3d88c" stroke="#c9861a" stroke-width="1.6"/><polygon points="812.1,236.4 790.6,248.8 769.1,236.4 769.1,211.6 790.6,199.2 812.1,211.6" fill="#f3d88c" stroke="#c9861a" stroke-width="1.6"/><polygon points="857.1,236.4 835.6,248.8 814.2,236.4 814.2,211.6 835.6,199.2 857.1,211.6" fill="#f3d88c" stroke="#c9861a" stroke-width="1.6"/><polygon points="24.0,275.4 2.5,287.8 -19.0,275.4 -19.0,250.6 2.5,238.2 24.0,250.6" fill="#f3d88c" stroke="#c9861a" stroke-width="1.6"/><polygon points="69.0,275.4 47.5,287.8 26.1,275.4 26.1,250.6 47.5,238.2 69.0,250.6" fill="#f3d88c" stroke="#c9861a" stroke-width="1.6"/><polygon points="114.1,275.4 92.6,287.8 71.1,275.4 71.1,250.6 92.6,238.2 114.1,250.6" fill="#f3d88c" stroke="#c9861a" stroke-width="1.6"/><polygon points="159.1,275.4 137.6,287.8 116.1,275.4 116.1,250.6 137.6,238.2 159.1,250.6" fill="#f3d88c" stroke="#c9861a" stroke-width="1.6"/><polygon points="204.1,275.4 182.6,287.8 161.2,275.4 161.2,250.6 182.6,238.2 204.1,250.6" fill="#f3d88c" stroke="#c9861a" stroke-width="1.6"/><polygon points="249.2,275.4 227.7,287.8 206.2,275.4 206.2,250.6 227.7,238.2 249.2,250.6" fill="#e9a126" stroke="#c9861a" stroke-width="1.6"/><ellipse cx="221.2" cy="255.2" rx="5.7" ry="3.1" fill="#fff" fill-opacity=".45"/><polygon points="294.2,275.4 272.7,287.8 251.2,275.4 251.2,250.6 272.7,238.2 294.2,250.6" fill="#e9a126" stroke="#c9861a" stroke-width="1.6"/><ellipse cx="266.2" cy="255.2" rx="5.7" ry="3.1" fill="#fff" fill-opacity=".45"/><polygon points="339.2,275.4 317.7,287.8 296.3,275.4 296.3,250.6 317.7,238.2 339.2,250.6" fill="#e9a126" stroke="#c9861a" stroke-width="1.6"/><ellipse cx="311.2" cy="255.2" rx="5.7" ry="3.1" fill="#fff" fill-opacity=".45"/><polygon points="384.3,275.4 362.8,287.8 341.3,275.4 341.3,250.6 362.8,238.2 384.3,250.6" fill="#e9a126" stroke="#c9861a" stroke-width="1.6"/><ellipse cx="356.3" cy="255.2" rx="5.7" ry="3.1" fill="#fff" fill-opacity=".45"/><polygon points="429.3,275.4 407.8,287.8 386.3,275.4 386.3,250.6 407.8,238.2 429.3,250.6" fill="#e9a126" stroke="#c9861a" stroke-width="1.6"/><ellipse cx="401.3" cy="255.2" rx="5.7" ry="3.1" fill="#fff" fill-opacity=".45"/><polygon points="474.3,275.4 452.8,287.8 431.4,275.4 431.4,250.6 452.8,238.2 474.3,250.6" fill="#e9a126" stroke="#c9861a" stroke-width="1.6"/><ellipse cx="446.3" cy="255.2" rx="5.7" ry="3.1" fill="#fff" fill-opacity=".45"/><polygon points="519.4,275.4 497.9,287.8 476.4,275.4 476.4,250.6 497.9,238.2 519.4,250.6" fill="#e9a126" stroke="#c9861a" stroke-width="1.6"/><ellipse cx="491.4" cy="255.2" rx="5.7" ry="3.1" fill="#fff" fill-opacity=".45"/><polygon points="564.4,275.4 542.9,287.8 521.4,275.4 521.4,250.6 542.9,238.2 564.4,250.6" fill="#e9a126" stroke="#c9861a" stroke-width="1.6"/><ellipse cx="536.4" cy="255.2" rx="5.7" ry="3.1" fill="#fff" fill-opacity=".45"/><polygon points="609.4,275.4 587.9,287.8 566.5,275.4 566.5,250.6 587.9,238.2 609.4,250.6" fill="#e9a126" stroke="#c9861a" stroke-width="1.6"/><ellipse cx="581.4" cy="255.2" rx="5.7" ry="3.1" fill="#fff" fill-opacity=".45"/><polygon points="654.5,275.4 633.0,287.8 611.5,275.4 611.5,250.6 633.0,238.2 654.5,250.6" fill="#f3d88c" stroke="#c9861a" stroke-width="1.6"/><polygon points="699.5,275.4 678.0,287.8 656.5,275.4 656.5,250.6 678.0,238.2 699.5,250.6" fill="#f3d88c" stroke="#c9861a" stroke-width="1.6"/><polygon points="744.5,275.4 723.0,287.8 701.6,275.4 701.6,250.6 723.0,238.2 744.5,250.6" fill="#f3d88c" stroke="#c9861a" stroke-width="1.6"/><polygon points="789.6,275.4 768.1,287.8 746.6,275.4 746.6,250.6 768.1,238.2 789.6,250.6" fill="#f3d88c" stroke="#c9861a" stroke-width="1.6"/><polygon points="834.6,275.4 813.1,287.8 791.6,275.4 791.6,250.6 813.1,238.2 834.6,250.6" fill="#f3d88c" stroke="#c9861a" stroke-width="1.6"/><polygon points="879.6,275.4 858.1,287.8 836.7,275.4 836.7,250.6 858.1,238.2 879.6,250.6" fill="#e9a126" stroke="#c9861a" stroke-width="1.6"/><ellipse cx="851.6" cy="255.2" rx="5.7" ry="3.1" fill="#fff" fill-opacity=".45"/><polygon points="1.5,314.4 -20.0,326.8 -41.5,314.4 -41.5,289.6 -20.0,277.2 1.5,289.6" fill="#f3d88c" stroke="#c9861a" stroke-width="1.6"/><polygon points="46.5,314.4 25.0,326.8 3.6,314.4 3.6,289.6 25.0,277.2 46.5,289.6" fill="#f3d88c" stroke="#c9861a" stroke-width="1.6"/><polygon points="91.5,314.4 70.1,326.8 48.6,314.4 48.6,289.6 70.1,277.2 91.5,289.6" fill="#f3d88c" stroke="#c9861a" stroke-width="1.6"/><polygon points="136.6,314.4 115.1,326.8 93.6,314.4 93.6,289.6 115.1,277.2 136.6,289.6" fill="#e9a126" stroke="#c9861a" stroke-width="1.6"/><ellipse cx="108.6" cy="294.2" rx="5.7" ry="3.1" fill="#fff" fill-opacity=".45"/><polygon points="181.6,314.4 160.1,326.8 138.7,314.4 138.7,289.6 160.1,277.2 181.6,289.6" fill="#e9a126" stroke="#c9861a" stroke-width="1.6"/><ellipse cx="153.6" cy="294.2" rx="5.7" ry="3.1" fill="#fff" fill-opacity=".45"/><polygon points="226.6,314.4 205.2,326.8 183.7,314.4 183.7,289.6 205.2,277.2 226.6,289.6" fill="#f3d88c" stroke="#c9861a" stroke-width="1.6"/><polygon points="271.7,314.4 250.2,326.8 228.7,314.4 228.7,289.6 250.2,277.2 271.7,289.6" fill="#e9a126" stroke="#c9861a" stroke-width="1.6"/><ellipse cx="243.7" cy="294.2" rx="5.7" ry="3.1" fill="#fff" fill-opacity=".45"/><polygon points="316.7,314.4 295.2,326.8 273.8,314.4 273.8,289.6 295.2,277.2 316.7,289.6" fill="#e9a126" stroke="#c9861a" stroke-width="1.6"/><ellipse cx="288.7" cy="294.2" rx="5.7" ry="3.1" fill="#fff" fill-opacity=".45"/><polygon points="361.7,314.4 340.3,326.8 318.8,314.4 318.8,289.6 340.3,277.2 361.7,289.6" fill="#e9a126" stroke="#c9861a" stroke-width="1.6"/><ellipse cx="333.8" cy="294.2" rx="5.7" ry="3.1" fill="#fff" fill-opacity=".45"/><polygon points="406.8,314.4 385.3,326.8 363.8,314.4 363.8,289.6 385.3,277.2 406.8,289.6" fill="#e9a126" stroke="#c9861a" stroke-width="1.6"/><ellipse cx="378.8" cy="294.2" rx="5.7" ry="3.1" fill="#fff" fill-opacity=".45"/><polygon points="451.8,314.4 430.3,326.8 408.9,314.4 408.9,289.6 430.3,277.2 451.8,289.6" fill="#e9a126" stroke="#c9861a" stroke-width="1.6"/><ellipse cx="423.8" cy="294.2" rx="5.7" ry="3.1" fill="#fff" fill-opacity=".45"/><polygon points="496.8,314.4 475.4,326.8 453.9,314.4 453.9,289.6 475.4,277.2 496.8,289.6" fill="#e9a126" stroke="#c9861a" stroke-width="1.6"/><ellipse cx="468.9" cy="294.2" rx="5.7" ry="3.1" fill="#fff" fill-opacity=".45"/><polygon points="541.9,314.4 520.4,326.8 498.9,314.4 498.9,289.6 520.4,277.2 541.9,289.6" fill="#f3d88c" stroke="#c9861a" stroke-width="1.6"/><polygon points="586.9,314.4 565.4,326.8 544.0,314.4 544.0,289.6 565.4,277.2 586.9,289.6" fill="#f3d88c" stroke="#c9861a" stroke-width="1.6"/><polygon points="631.9,314.4 610.5,326.8 589.0,314.4 589.0,289.6 610.5,277.2 631.9,289.6" fill="#f3d88c" stroke="#c9861a" stroke-width="1.6"/><polygon points="677.0,314.4 655.5,326.8 634.0,314.4 634.0,289.6 655.5,277.2 677.0,289.6" fill="#f3d88c" stroke="#c9861a" stroke-width="1.6"/><polygon points="722.0,314.4 700.5,326.8 679.1,314.4 679.1,289.6 700.5,277.2 722.0,289.6" fill="#f3d88c" stroke="#c9861a" stroke-width="1.6"/><polygon points="767.0,314.4 745.6,326.8 724.1,314.4 724.1,289.6 745.6,277.2 767.0,289.6" fill="#e9a126" stroke="#c9861a" stroke-width="1.6"/><ellipse cx="739.1" cy="294.2" rx="5.7" ry="3.1" fill="#fff" fill-opacity=".45"/><polygon points="812.1,314.4 790.6,326.8 769.1,314.4 769.1,289.6 790.6,277.2 812.1,289.6" fill="#e9a126" stroke="#c9861a" stroke-width="1.6"/><ellipse cx="784.1" cy="294.2" rx="5.7" ry="3.1" fill="#fff" fill-opacity=".45"/><polygon points="857.1,314.4 835.6,326.8 814.2,314.4 814.2,289.6 835.6,277.2 857.1,289.6" fill="#f3d88c" stroke="#c9861a" stroke-width="1.6"/><polygon points="24.0,353.4 2.5,365.8 -19.0,353.4 -19.0,328.6 2.5,316.2 24.0,328.6" fill="#f3d88c" stroke="#c9861a" stroke-width="1.6"/><polygon points="69.0,353.4 47.5,365.8 26.1,353.4 26.1,328.6 47.5,316.2 69.0,328.6" fill="#e9a126" stroke="#c9861a" stroke-width="1.6"/><ellipse cx="41.0" cy="333.2" rx="5.7" ry="3.1" fill="#fff" fill-opacity=".45"/><polygon points="114.1,353.4 92.6,365.8 71.1,353.4 71.1,328.6 92.6,316.2 114.1,328.6" fill="#e9a126" stroke="#c9861a" stroke-width="1.6"/><ellipse cx="86.1" cy="333.2" rx="5.7" ry="3.1" fill="#fff" fill-opacity=".45"/><polygon points="159.1,353.4 137.6,365.8 116.1,353.4 116.1,328.6 137.6,316.2 159.1,328.6" fill="#f3d88c" stroke="#c9861a" stroke-width="1.6"/><polygon points="204.1,353.4 182.6,365.8 161.2,353.4 161.2,328.6 182.6,316.2 204.1,328.6" fill="#f3d88c" stroke="#c9861a" stroke-width="1.6"/><polygon points="249.2,353.4 227.7,365.8 206.2,353.4 206.2,328.6 227.7,316.2 249.2,328.6" fill="#f3d88c" stroke="#c9861a" stroke-width="1.6"/><polygon points="294.2,353.4 272.7,365.8 251.2,353.4 251.2,328.6 272.7,316.2 294.2,328.6" fill="#e9a126" stroke="#c9861a" stroke-width="1.6"/><ellipse cx="266.2" cy="333.2" rx="5.7" ry="3.1" fill="#fff" fill-opacity=".45"/><polygon points="339.2,353.4 317.7,365.8 296.3,353.4 296.3,328.6 317.7,316.2 339.2,328.6" fill="#e9a126" stroke="#c9861a" stroke-width="1.6"/><ellipse cx="311.2" cy="333.2" rx="5.7" ry="3.1" fill="#fff" fill-opacity=".45"/><polygon points="384.3,353.4 362.8,365.8 341.3,353.4 341.3,328.6 362.8,316.2 384.3,328.6" fill="#e9a126" stroke="#c9861a" stroke-width="1.6"/><ellipse cx="356.3" cy="333.2" rx="5.7" ry="3.1" fill="#fff" fill-opacity=".45"/><polygon points="429.3,353.4 407.8,365.8 386.3,353.4 386.3,328.6 407.8,316.2 429.3,328.6" fill="#e9a126" stroke="#c9861a" stroke-width="1.6"/><ellipse cx="401.3" cy="333.2" rx="5.7" ry="3.1" fill="#fff" fill-opacity=".45"/><polygon points="474.3,353.4 452.8,365.8 431.4,353.4 431.4,328.6 452.8,316.2 474.3,328.6" fill="#e9a126" stroke="#c9861a" stroke-width="1.6"/><ellipse cx="446.3" cy="333.2" rx="5.7" ry="3.1" fill="#fff" fill-opacity=".45"/><polygon points="519.4,353.4 497.9,365.8 476.4,353.4 476.4,328.6 497.9,316.2 519.4,328.6" fill="#e9a126" stroke="#c9861a" stroke-width="1.6"/><ellipse cx="491.4" cy="333.2" rx="5.7" ry="3.1" fill="#fff" fill-opacity=".45"/><polygon points="564.4,353.4 542.9,365.8 521.4,353.4 521.4,328.6 542.9,316.2 564.4,328.6" fill="#f3d88c" stroke="#c9861a" stroke-width="1.6"/><polygon points="609.4,353.4 587.9,365.8 566.5,353.4 566.5,328.6 587.9,316.2 609.4,328.6" fill="#f3d88c" stroke="#c9861a" stroke-width="1.6"/><polygon points="654.5,353.4 633.0,365.8 611.5,353.4 611.5,328.6 633.0,316.2 654.5,328.6" fill="#f3d88c" stroke="#c9861a" stroke-width="1.6"/><polygon points="699.5,353.4 678.0,365.8 656.5,353.4 656.5,328.6 678.0,316.2 699.5,328.6" fill="#e9a126" stroke="#c9861a" stroke-width="1.6"/><ellipse cx="671.5" cy="333.2" rx="5.7" ry="3.1" fill="#fff" fill-opacity=".45"/><polygon points="744.5,353.4 723.0,365.8 701.6,353.4 701.6,328.6 723.0,316.2 744.5,328.6" fill="#e9a126" stroke="#c9861a" stroke-width="1.6"/><ellipse cx="716.5" cy="333.2" rx="5.7" ry="3.1" fill="#fff" fill-opacity=".45"/><polygon points="789.6,353.4 768.1,365.8 746.6,353.4 746.6,328.6 768.1,316.2 789.6,328.6" fill="#f3d88c" stroke="#c9861a" stroke-width="1.6"/><polygon points="834.6,353.4 813.1,365.8 791.6,353.4 791.6,328.6 813.1,316.2 834.6,328.6" fill="#f3d88c" stroke="#c9861a" stroke-width="1.6"/><polygon points="879.6,353.4 858.1,365.8 836.7,353.4 836.7,328.6 858.1,316.2 879.6,328.6" fill="#f3d88c" stroke="#c9861a" stroke-width="1.6"/><polygon points="1.5,392.4 -20.0,404.8 -41.5,392.4 -41.5,367.6 -20.0,355.2 1.5,367.6" fill="#e9a126" stroke="#c9861a" stroke-width="1.6"/><ellipse cx="-26.5" cy="372.2" rx="5.7" ry="3.1" fill="#fff" fill-opacity=".45"/><polygon points="46.5,392.4 25.0,404.8 3.6,392.4 3.6,367.6 25.0,355.2 46.5,367.6" fill="#f3d88c" stroke="#c9861a" stroke-width="1.6"/><polygon points="91.5,392.4 70.1,404.8 48.6,392.4 48.6,367.6 70.1,355.2 91.5,367.6" fill="#f3d88c" stroke="#c9861a" stroke-width="1.6"/><polygon points="136.6,392.4 115.1,404.8 93.6,392.4 93.6,367.6 115.1,355.2 136.6,367.6" fill="#f3d88c" stroke="#c9861a" stroke-width="1.6"/><polygon points="181.6,392.4 160.1,404.8 138.7,392.4 138.7,367.6 160.1,355.2 181.6,367.6" fill="#f3d88c" stroke="#c9861a" stroke-width="1.6"/><polygon points="226.6,392.4 205.2,404.8 183.7,392.4 183.7,367.6 205.2,355.2 226.6,367.6" fill="#f3d88c" stroke="#c9861a" stroke-width="1.6"/><polygon points="271.7,392.4 250.2,404.8 228.7,392.4 228.7,367.6 250.2,355.2 271.7,367.6" fill="#e9a126" stroke="#c9861a" stroke-width="1.6"/><ellipse cx="243.7" cy="372.2" rx="5.7" ry="3.1" fill="#fff" fill-opacity=".45"/><polygon points="316.7,392.4 295.2,404.8 273.8,392.4 273.8,367.6 295.2,355.2 316.7,367.6" fill="#e9a126" stroke="#c9861a" stroke-width="1.6"/><ellipse cx="288.7" cy="372.2" rx="5.7" ry="3.1" fill="#fff" fill-opacity=".45"/><polygon points="361.7,392.4 340.3,404.8 318.8,392.4 318.8,367.6 340.3,355.2 361.7,367.6" fill="#e9a126" stroke="#c9861a" stroke-width="1.6"/><ellipse cx="333.8" cy="372.2" rx="5.7" ry="3.1" fill="#fff" fill-opacity=".45"/><polygon points="406.8,392.4 385.3,404.8 363.8,392.4 363.8,367.6 385.3,355.2 406.8,367.6" fill="#e9a126" stroke="#c9861a" stroke-width="1.6"/><ellipse cx="378.8" cy="372.2" rx="5.7" ry="3.1" fill="#fff" fill-opacity=".45"/><polygon points="451.8,392.4 430.3,404.8 408.9,392.4 408.9,367.6 430.3,355.2 451.8,367.6" fill="#e9a126" stroke="#c9861a" stroke-width="1.6"/><ellipse cx="423.8" cy="372.2" rx="5.7" ry="3.1" fill="#fff" fill-opacity=".45"/><polygon points="496.8,392.4 475.4,404.8 453.9,392.4 453.9,367.6 475.4,355.2 496.8,367.6" fill="#e9a126" stroke="#c9861a" stroke-width="1.6"/><ellipse cx="468.9" cy="372.2" rx="5.7" ry="3.1" fill="#fff" fill-opacity=".45"/><polygon points="541.9,392.4 520.4,404.8 498.9,392.4 498.9,367.6 520.4,355.2 541.9,367.6" fill="#f3d88c" stroke="#c9861a" stroke-width="1.6"/><polygon points="586.9,392.4 565.4,404.8 544.0,392.4 544.0,367.6 565.4,355.2 586.9,367.6" fill="#e9a126" stroke="#c9861a" stroke-width="1.6"/><ellipse cx="558.9" cy="372.2" rx="5.7" ry="3.1" fill="#fff" fill-opacity=".45"/><polygon points="631.9,392.4 610.5,404.8 589.0,392.4 589.0,367.6 610.5,355.2 631.9,367.6" fill="#e9a126" stroke="#c9861a" stroke-width="1.6"/><ellipse cx="604.0" cy="372.2" rx="5.7" ry="3.1" fill="#fff" fill-opacity=".45"/><polygon points="677.0,392.4 655.5,404.8 634.0,392.4 634.0,367.6 655.5,355.2 677.0,367.6" fill="#f3d88c" stroke="#c9861a" stroke-width="1.6"/><polygon points="722.0,392.4 700.5,404.8 679.1,392.4 679.1,367.6 700.5,355.2 722.0,367.6" fill="#f3d88c" stroke="#c9861a" stroke-width="1.6"/><polygon points="767.0,392.4 745.6,404.8 724.1,392.4 724.1,367.6 745.6,355.2 767.0,367.6" fill="#f3d88c" stroke="#c9861a" stroke-width="1.6"/><polygon points="812.1,392.4 790.6,404.8 769.1,392.4 769.1,367.6 790.6,355.2 812.1,367.6" fill="#f3d88c" stroke="#c9861a" stroke-width="1.6"/><polygon points="857.1,392.4 835.6,404.8 814.2,392.4 814.2,367.6 835.6,355.2 857.1,367.6" fill="#f3d88c" stroke="#c9861a" stroke-width="1.6"/><polygon points="24.0,431.4 2.5,443.8 -19.0,431.4 -19.0,406.6 2.5,394.2 24.0,406.6" fill="#f3d88c" stroke="#c9861a" stroke-width="1.6"/><polygon points="69.0,431.4 47.5,443.8 26.1,431.4 26.1,406.6 47.5,394.2 69.0,406.6" fill="#f3d88c" stroke="#c9861a" stroke-width="1.6"/><polygon points="114.1,431.4 92.6,443.8 71.1,431.4 71.1,406.6 92.6,394.2 114.1,406.6" fill="#f3d88c" stroke="#c9861a" stroke-width="1.6"/><polygon points="159.1,431.4 137.6,443.8 116.1,431.4 116.1,406.6 137.6,394.2 159.1,406.6" fill="#f3d88c" stroke="#c9861a" stroke-width="1.6"/><polygon points="204.1,431.4 182.6,443.8 161.2,431.4 161.2,406.6 182.6,394.2 204.1,406.6" fill="#e9a126" stroke="#c9861a" stroke-width="1.6"/><ellipse cx="176.1" cy="411.2" rx="5.7" ry="3.1" fill="#fff" fill-opacity=".45"/><polygon points="249.2,431.4 227.7,443.8 206.2,431.4 206.2,406.6 227.7,394.2 249.2,406.6" fill="#e9a126" stroke="#c9861a" stroke-width="1.6"/><ellipse cx="221.2" cy="411.2" rx="5.7" ry="3.1" fill="#fff" fill-opacity=".45"/><polygon points="294.2,431.4 272.7,443.8 251.2,431.4 251.2,406.6 272.7,394.2 294.2,406.6" fill="#e9a126" stroke="#c9861a" stroke-width="1.6"/><ellipse cx="266.2" cy="411.2" rx="5.7" ry="3.1" fill="#fff" fill-opacity=".45"/><polygon points="339.2,431.4 317.7,443.8 296.3,431.4 296.3,406.6 317.7,394.2 339.2,406.6" fill="#e9a126" stroke="#c9861a" stroke-width="1.6"/><ellipse cx="311.2" cy="411.2" rx="5.7" ry="3.1" fill="#fff" fill-opacity=".45"/><polygon points="384.3,431.4 362.8,443.8 341.3,431.4 341.3,406.6 362.8,394.2 384.3,406.6" fill="#e9a126" stroke="#c9861a" stroke-width="1.6"/><ellipse cx="356.3" cy="411.2" rx="5.7" ry="3.1" fill="#fff" fill-opacity=".45"/><polygon points="429.3,431.4 407.8,443.8 386.3,431.4 386.3,406.6 407.8,394.2 429.3,406.6" fill="#e9a126" stroke="#c9861a" stroke-width="1.6"/><ellipse cx="401.3" cy="411.2" rx="5.7" ry="3.1" fill="#fff" fill-opacity=".45"/><polygon points="474.3,431.4 452.8,443.8 431.4,431.4 431.4,406.6 452.8,394.2 474.3,406.6" fill="#e9a126" stroke="#c9861a" stroke-width="1.6"/><ellipse cx="446.3" cy="411.2" rx="5.7" ry="3.1" fill="#fff" fill-opacity=".45"/><polygon points="519.4,431.4 497.9,443.8 476.4,431.4 476.4,406.6 497.9,394.2 519.4,406.6" fill="#e9a126" stroke="#c9861a" stroke-width="1.6"/><ellipse cx="491.4" cy="411.2" rx="5.7" ry="3.1" fill="#fff" fill-opacity=".45"/><polygon points="564.4,431.4 542.9,443.8 521.4,431.4 521.4,406.6 542.9,394.2 564.4,406.6" fill="#e9a126" stroke="#c9861a" stroke-width="1.6"/><ellipse cx="536.4" cy="411.2" rx="5.7" ry="3.1" fill="#fff" fill-opacity=".45"/><polygon points="609.4,431.4 587.9,443.8 566.5,431.4 566.5,406.6 587.9,394.2 609.4,406.6" fill="#f3d88c" stroke="#c9861a" stroke-width="1.6"/><polygon points="654.5,431.4 633.0,443.8 611.5,431.4 611.5,406.6 633.0,394.2 654.5,406.6" fill="#f3d88c" stroke="#c9861a" stroke-width="1.6"/><polygon points="699.5,431.4 678.0,443.8 656.5,431.4 656.5,406.6 678.0,394.2 699.5,406.6" fill="#f3d88c" stroke="#c9861a" stroke-width="1.6"/><polygon points="744.5,431.4 723.0,443.8 701.6,431.4 701.6,406.6 723.0,394.2 744.5,406.6" fill="#f3d88c" stroke="#c9861a" stroke-width="1.6"/><polygon points="789.6,431.4 768.1,443.8 746.6,431.4 746.6,406.6 768.1,394.2 789.6,406.6" fill="#f3d88c" stroke="#c9861a" stroke-width="1.6"/><polygon points="834.6,431.4 813.1,443.8 791.6,431.4 791.6,406.6 813.1,394.2 834.6,406.6" fill="#e9a126" stroke="#c9861a" stroke-width="1.6"/><ellipse cx="806.6" cy="411.2" rx="5.7" ry="3.1" fill="#fff" fill-opacity=".45"/><polygon points="879.6,431.4 858.1,443.8 836.7,431.4 836.7,406.6 858.1,394.2 879.6,406.6" fill="#e9a126" stroke="#c9861a" stroke-width="1.6"/><ellipse cx="851.6" cy="411.2" rx="5.7" ry="3.1" fill="#fff" fill-opacity=".45"/><polygon points="1.5,470.4 -20.0,482.8 -41.5,470.4 -41.5,445.6 -20.0,433.2 1.5,445.6" fill="#f3d88c" stroke="#c9861a" stroke-width="1.6"/><polygon points="46.5,470.4 25.0,482.8 3.6,470.4 3.6,445.6 25.0,433.2 46.5,445.6" fill="#f3d88c" stroke="#c9861a" stroke-width="1.6"/><polygon points="91.5,470.4 70.1,482.8 48.6,470.4 48.6,445.6 70.1,433.2 91.5,445.6" fill="#e9a126" stroke="#c9861a" stroke-width="1.6"/><ellipse cx="63.6" cy="450.2" rx="5.7" ry="3.1" fill="#fff" fill-opacity=".45"/><polygon points="136.6,470.4 115.1,482.8 93.6,470.4 93.6,445.6 115.1,433.2 136.6,445.6" fill="#e9a126" stroke="#c9861a" stroke-width="1.6"/><ellipse cx="108.6" cy="450.2" rx="5.7" ry="3.1" fill="#fff" fill-opacity=".45"/><polygon points="181.6,470.4 160.1,482.8 138.7,470.4 138.7,445.6 160.1,433.2 181.6,445.6" fill="#f3d88c" stroke="#c9861a" stroke-width="1.6"/><polygon points="226.6,470.4 205.2,482.8 183.7,470.4 183.7,445.6 205.2,433.2 226.6,445.6" fill="#f3d88c" stroke="#c9861a" stroke-width="1.6"/><polygon points="271.7,470.4 250.2,482.8 228.7,470.4 228.7,445.6 250.2,433.2 271.7,445.6" fill="#f3d88c" stroke="#c9861a" stroke-width="1.6"/><polygon points="316.7,470.4 295.2,482.8 273.8,470.4 273.8,445.6 295.2,433.2 316.7,445.6" fill="#f3d88c" stroke="#c9861a" stroke-width="1.6"/><polygon points="361.7,470.4 340.3,482.8 318.8,470.4 318.8,445.6 340.3,433.2 361.7,445.6" fill="#f3d88c" stroke="#c9861a" stroke-width="1.6"/><polygon points="406.8,470.4 385.3,482.8 363.8,470.4 363.8,445.6 385.3,433.2 406.8,445.6" fill="#e9a126" stroke="#c9861a" stroke-width="1.6"/><ellipse cx="378.8" cy="450.2" rx="5.7" ry="3.1" fill="#fff" fill-opacity=".45"/><polygon points="451.8,470.4 430.3,482.8 408.9,470.4 408.9,445.6 430.3,433.2 451.8,445.6" fill="#e9a126" stroke="#c9861a" stroke-width="1.6"/><ellipse cx="423.8" cy="450.2" rx="5.7" ry="3.1" fill="#fff" fill-opacity=".45"/><polygon points="496.8,470.4 475.4,482.8 453.9,470.4 453.9,445.6 475.4,433.2 496.8,445.6" fill="#f3d88c" stroke="#c9861a" stroke-width="1.6"/><polygon points="541.9,470.4 520.4,482.8 498.9,470.4 498.9,445.6 520.4,433.2 541.9,445.6" fill="#f3d88c" stroke="#c9861a" stroke-width="1.6"/><polygon points="586.9,470.4 565.4,482.8 544.0,470.4 544.0,445.6 565.4,433.2 586.9,445.6" fill="#f3d88c" stroke="#c9861a" stroke-width="1.6"/><polygon points="631.9,470.4 610.5,482.8 589.0,470.4 589.0,445.6 610.5,433.2 631.9,445.6" fill="#f3d88c" stroke="#c9861a" stroke-width="1.6"/><polygon points="677.0,470.4 655.5,482.8 634.0,470.4 634.0,445.6 655.5,433.2 677.0,445.6" fill="#f3d88c" stroke="#c9861a" stroke-width="1.6"/><polygon points="722.0,470.4 700.5,482.8 679.1,470.4 679.1,445.6 700.5,433.2 722.0,445.6" fill="#e9a126" stroke="#c9861a" stroke-width="1.6"/><ellipse cx="694.0" cy="450.2" rx="5.7" ry="3.1" fill="#fff" fill-opacity=".45"/><polygon points="767.0,470.4 745.6,482.8 724.1,470.4 724.1,445.6 745.6,433.2 767.0,445.6" fill="#e9a126" stroke="#c9861a" stroke-width="1.6"/><ellipse cx="739.1" cy="450.2" rx="5.7" ry="3.1" fill="#fff" fill-opacity=".45"/><polygon points="812.1,470.4 790.6,482.8 769.1,470.4 769.1,445.6 790.6,433.2 812.1,445.6" fill="#f3d88c" stroke="#c9861a" stroke-width="1.6"/><polygon points="857.1,470.4 835.6,482.8 814.2,470.4 814.2,445.6 835.6,433.2 857.1,445.6" fill="#f3d88c" stroke="#c9861a" stroke-width="1.6"/><polygon points="24.0,509.4 2.5,521.8 -19.0,509.4 -19.0,484.6 2.5,472.2 24.0,484.6" fill="#e9a126" stroke="#c9861a" stroke-width="1.6"/><ellipse cx="-4.0" cy="489.2" rx="5.7" ry="3.1" fill="#fff" fill-opacity=".45"/><polygon points="69.0,509.4 47.5,521.8 26.1,509.4 26.1,484.6 47.5,472.2 69.0,484.6" fill="#e9a126" stroke="#c9861a" stroke-width="1.6"/><ellipse cx="41.0" cy="489.2" rx="5.7" ry="3.1" fill="#fff" fill-opacity=".45"/><polygon points="114.1,509.4 92.6,521.8 71.1,509.4 71.1,484.6 92.6,472.2 114.1,484.6" fill="#f3d88c" stroke="#c9861a" stroke-width="1.6"/><polygon points="159.1,509.4 137.6,521.8 116.1,509.4 116.1,484.6 137.6,472.2 159.1,484.6" fill="#f3d88c" stroke="#c9861a" stroke-width="1.6"/><polygon points="204.1,509.4 182.6,521.8 161.2,509.4 161.2,484.6 182.6,472.2 204.1,484.6" fill="#f3d88c" stroke="#c9861a" stroke-width="1.6"/><polygon points="249.2,509.4 227.7,521.8 206.2,509.4 206.2,484.6 227.7,472.2 249.2,484.6" fill="#f3d88c" stroke="#c9861a" stroke-width="1.6"/><polygon points="294.2,509.4 272.7,521.8 251.2,509.4 251.2,484.6 272.7,472.2 294.2,484.6" fill="#f3d88c" stroke="#c9861a" stroke-width="1.6"/><polygon points="339.2,509.4 317.7,521.8 296.3,509.4 296.3,484.6 317.7,472.2 339.2,484.6" fill="#e9a126" stroke="#c9861a" stroke-width="1.6"/><ellipse cx="311.2" cy="489.2" rx="5.7" ry="3.1" fill="#fff" fill-opacity=".45"/><polygon points="384.3,509.4 362.8,521.8 341.3,509.4 341.3,484.6 362.8,472.2 384.3,484.6" fill="#e9a126" stroke="#c9861a" stroke-width="1.6"/><ellipse cx="356.3" cy="489.2" rx="5.7" ry="3.1" fill="#fff" fill-opacity=".45"/><polygon points="429.3,509.4 407.8,521.8 386.3,509.4 386.3,484.6 407.8,472.2 429.3,484.6" fill="#f3d88c" stroke="#c9861a" stroke-width="1.6"/><polygon points="474.3,509.4 452.8,521.8 431.4,509.4 431.4,484.6 452.8,472.2 474.3,484.6" fill="#f3d88c" stroke="#c9861a" stroke-width="1.6"/><polygon points="519.4,509.4 497.9,521.8 476.4,509.4 476.4,484.6 497.9,472.2 519.4,484.6" fill="#f3d88c" stroke="#c9861a" stroke-width="1.6"/><polygon points="564.4,509.4 542.9,521.8 521.4,509.4 521.4,484.6 542.9,472.2 564.4,484.6" fill="#f3d88c" stroke="#c9861a" stroke-width="1.6"/><polygon points="609.4,509.4 587.9,521.8 566.5,509.4 566.5,484.6 587.9,472.2 609.4,484.6" fill="#f3d88c" stroke="#c9861a" stroke-width="1.6"/><polygon points="654.5,509.4 633.0,521.8 611.5,509.4 611.5,484.6 633.0,472.2 654.5,484.6" fill="#e9a126" stroke="#c9861a" stroke-width="1.6"/><ellipse cx="626.5" cy="489.2" rx="5.7" ry="3.1" fill="#fff" fill-opacity=".45"/><polygon points="699.5,509.4 678.0,521.8 656.5,509.4 656.5,484.6 678.0,472.2 699.5,484.6" fill="#e9a126" stroke="#c9861a" stroke-width="1.6"/><ellipse cx="671.5" cy="489.2" rx="5.7" ry="3.1" fill="#fff" fill-opacity=".45"/><polygon points="744.5,509.4 723.0,521.8 701.6,509.4 701.6,484.6 723.0,472.2 744.5,484.6" fill="#f3d88c" stroke="#c9861a" stroke-width="1.6"/><polygon points="789.6,509.4 768.1,521.8 746.6,509.4 746.6,484.6 768.1,472.2 789.6,484.6" fill="#f3d88c" stroke="#c9861a" stroke-width="1.6"/><polygon points="834.6,509.4 813.1,521.8 791.6,509.4 791.6,484.6 813.1,472.2 834.6,484.6" fill="#f3d88c" stroke="#c9861a" stroke-width="1.6"/><polygon points="879.6,509.4 858.1,521.8 836.7,509.4 836.7,484.6 858.1,472.2 879.6,484.6" fill="#f3d88c" stroke="#c9861a" stroke-width="1.6"/><polygon points="1.5,548.4 -20.0,560.8 -41.5,548.4 -41.5,523.6 -20.0,511.2 1.5,523.6" fill="#f3d88c" stroke="#c9861a" stroke-width="1.6"/><polygon points="46.5,548.4 25.0,560.8 3.6,548.4 3.6,523.6 25.0,511.2 46.5,523.6" fill="#f3d88c" stroke="#c9861a" stroke-width="1.6"/><polygon points="91.5,548.4 70.1,560.8 48.6,548.4 48.6,523.6 70.1,511.2 91.5,523.6" fill="#f3d88c" stroke="#c9861a" stroke-width="1.6"/><polygon points="136.6,548.4 115.1,560.8 93.6,548.4 93.6,523.6 115.1,511.2 136.6,523.6" fill="#f3d88c" stroke="#c9861a" stroke-width="1.6"/><polygon points="181.6,548.4 160.1,560.8 138.7,548.4 138.7,523.6 160.1,511.2 181.6,523.6" fill="#f3d88c" stroke="#c9861a" stroke-width="1.6"/><polygon points="226.6,548.4 205.2,560.8 183.7,548.4 183.7,523.6 205.2,511.2 226.6,523.6" fill="#e9a126" stroke="#c9861a" stroke-width="1.6"/><ellipse cx="198.7" cy="528.2" rx="5.7" ry="3.1" fill="#fff" fill-opacity=".45"/><polygon points="271.7,548.4 250.2,560.8 228.7,548.4 228.7,523.6 250.2,511.2 271.7,523.6" fill="#e9a126" stroke="#c9861a" stroke-width="1.6"/><ellipse cx="243.7" cy="528.2" rx="5.7" ry="3.1" fill="#fff" fill-opacity=".45"/><polygon points="316.7,548.4 295.2,560.8 273.8,548.4 273.8,523.6 295.2,511.2 316.7,523.6" fill="#f3d88c" stroke="#c9861a" stroke-width="1.6"/><polygon points="361.7,548.4 340.3,560.8 318.8,548.4 318.8,523.6 340.3,511.2 361.7,523.6" fill="#f3d88c" stroke="#c9861a" stroke-width="1.6"/><polygon points="406.8,548.4 385.3,560.8 363.8,548.4 363.8,523.6 385.3,511.2 406.8,523.6" fill="#f3d88c" stroke="#c9861a" stroke-width="1.6"/><polygon points="451.8,548.4 430.3,560.8 408.9,548.4 408.9,523.6 430.3,511.2 451.8,523.6" fill="#f3d88c" stroke="#c9861a" stroke-width="1.6"/><polygon points="496.8,548.4 475.4,560.8 453.9,548.4 453.9,523.6 475.4,511.2 496.8,523.6" fill="#f3d88c" stroke="#c9861a" stroke-width="1.6"/><polygon points="541.9,548.4 520.4,560.8 498.9,548.4 498.9,523.6 520.4,511.2 541.9,523.6" fill="#e9a126" stroke="#c9861a" stroke-width="1.6"/><ellipse cx="513.9" cy="528.2" rx="5.7" ry="3.1" fill="#fff" fill-opacity=".45"/><polygon points="586.9,548.4 565.4,560.8 544.0,548.4 544.0,523.6 565.4,511.2 586.9,523.6" fill="#e9a126" stroke="#c9861a" stroke-width="1.6"/><ellipse cx="558.9" cy="528.2" rx="5.7" ry="3.1" fill="#fff" fill-opacity=".45"/><polygon points="631.9,548.4 610.5,560.8 589.0,548.4 589.0,523.6 610.5,511.2 631.9,523.6" fill="#f3d88c" stroke="#c9861a" stroke-width="1.6"/><polygon points="677.0,548.4 655.5,560.8 634.0,548.4 634.0,523.6 655.5,511.2 677.0,523.6" fill="#f3d88c" stroke="#c9861a" stroke-width="1.6"/><polygon points="722.0,548.4 700.5,560.8 679.1,548.4 679.1,523.6 700.5,511.2 722.0,523.6" fill="#f3d88c" stroke="#c9861a" stroke-width="1.6"/><polygon points="767.0,548.4 745.6,560.8 724.1,548.4 724.1,523.6 745.6,511.2 767.0,523.6" fill="#f3d88c" stroke="#c9861a" stroke-width="1.6"/><polygon points="812.1,548.4 790.6,560.8 769.1,548.4 769.1,523.6 790.6,511.2 812.1,523.6" fill="#f3d88c" stroke="#c9861a" stroke-width="1.6"/><polygon points="857.1,548.4 835.6,560.8 814.2,548.4 814.2,523.6 835.6,511.2 857.1,523.6" fill="#e9a126" stroke="#c9861a" stroke-width="1.6"/><ellipse cx="829.1" cy="528.2" rx="5.7" ry="3.1" fill="#fff" fill-opacity=".45"/><polygon points="24.0,587.4 2.5,599.8 -19.0,587.4 -19.0,562.6 2.5,550.2 24.0,562.6" fill="#f3d88c" stroke="#c9861a" stroke-width="1.6"/><polygon points="69.0,587.4 47.5,599.8 26.1,587.4 26.1,562.6 47.5,550.2 69.0,562.6" fill="#f3d88c" stroke="#c9861a" stroke-width="1.6"/><polygon points="114.1,587.4 92.6,599.8 71.1,587.4 71.1,562.6 92.6,550.2 114.1,562.6" fill="#f3d88c" stroke="#c9861a" stroke-width="1.6"/><polygon points="159.1,587.4 137.6,599.8 116.1,587.4 116.1,562.6 137.6,550.2 159.1,562.6" fill="#e9a126" stroke="#c9861a" stroke-width="1.6"/><ellipse cx="131.1" cy="567.2" rx="5.7" ry="3.1" fill="#fff" fill-opacity=".45"/><polygon points="204.1,587.4 182.6,599.8 161.2,587.4 161.2,562.6 182.6,550.2 204.1,562.6" fill="#e9a126" stroke="#c9861a" stroke-width="1.6"/><ellipse cx="176.1" cy="567.2" rx="5.7" ry="3.1" fill="#fff" fill-opacity=".45"/><polygon points="249.2,587.4 227.7,599.8 206.2,587.4 206.2,562.6 227.7,550.2 249.2,562.6" fill="#f3d88c" stroke="#c9861a" stroke-width="1.6"/><polygon points="294.2,587.4 272.7,599.8 251.2,587.4 251.2,562.6 272.7,550.2 294.2,562.6" fill="#f3d88c" stroke="#c9861a" stroke-width="1.6"/><polygon points="339.2,587.4 317.7,599.8 296.3,587.4 296.3,562.6 317.7,550.2 339.2,562.6" fill="#f3d88c" stroke="#c9861a" stroke-width="1.6"/><polygon points="384.3,587.4 362.8,599.8 341.3,587.4 341.3,562.6 362.8,550.2 384.3,562.6" fill="#f3d88c" stroke="#c9861a" stroke-width="1.6"/><polygon points="429.3,587.4 407.8,599.8 386.3,587.4 386.3,562.6 407.8,550.2 429.3,562.6" fill="#f3d88c" stroke="#c9861a" stroke-width="1.6"/><polygon points="474.3,587.4 452.8,599.8 431.4,587.4 431.4,562.6 452.8,550.2 474.3,562.6" fill="#e9a126" stroke="#c9861a" stroke-width="1.6"/><ellipse cx="446.3" cy="567.2" rx="5.7" ry="3.1" fill="#fff" fill-opacity=".45"/><polygon points="519.4,587.4 497.9,599.8 476.4,587.4 476.4,562.6 497.9,550.2 519.4,562.6" fill="#e9a126" stroke="#c9861a" stroke-width="1.6"/><ellipse cx="491.4" cy="567.2" rx="5.7" ry="3.1" fill="#fff" fill-opacity=".45"/><polygon points="564.4,587.4 542.9,599.8 521.4,587.4 521.4,562.6 542.9,550.2 564.4,562.6" fill="#f3d88c" stroke="#c9861a" stroke-width="1.6"/><polygon points="609.4,587.4 587.9,599.8 566.5,587.4 566.5,562.6 587.9,550.2 609.4,562.6" fill="#f3d88c" stroke="#c9861a" stroke-width="1.6"/><polygon points="654.5,587.4 633.0,599.8 611.5,587.4 611.5,562.6 633.0,550.2 654.5,562.6" fill="#f3d88c" stroke="#c9861a" stroke-width="1.6"/><polygon points="699.5,587.4 678.0,599.8 656.5,587.4 656.5,562.6 678.0,550.2 699.5,562.6" fill="#f3d88c" stroke="#c9861a" stroke-width="1.6"/><polygon points="744.5,587.4 723.0,599.8 701.6,587.4 701.6,562.6 723.0,550.2 744.5,562.6" fill="#f3d88c" stroke="#c9861a" stroke-width="1.6"/><polygon points="789.6,587.4 768.1,599.8 746.6,587.4 746.6,562.6 768.1,550.2 789.6,562.6" fill="#e9a126" stroke="#c9861a" stroke-width="1.6"/><ellipse cx="761.6" cy="567.2" rx="5.7" ry="3.1" fill="#fff" fill-opacity=".45"/><polygon points="834.6,587.4 813.1,599.8 791.6,587.4 791.6,562.6 813.1,550.2 834.6,562.6" fill="#e9a126" stroke="#c9861a" stroke-width="1.6"/><ellipse cx="806.6" cy="567.2" rx="5.7" ry="3.1" fill="#fff" fill-opacity=".45"/><polygon points="879.6,587.4 858.1,599.8 836.7,587.4 836.7,562.6 858.1,550.2 879.6,562.6" fill="#f3d88c" stroke="#c9861a" stroke-width="1.6"/><polygon points="1.5,626.4 -20.0,638.8 -41.5,626.4 -41.5,601.6 -20.0,589.2 1.5,601.6" fill="#f3d88c" stroke="#c9861a" stroke-width="1.6"/><polygon points="46.5,626.4 25.0,638.8 3.6,626.4 3.6,601.6 25.0,589.2 46.5,601.6" fill="#e9a126" stroke="#c9861a" stroke-width="1.6"/><ellipse cx="18.5" cy="606.2" rx="5.7" ry="3.1" fill="#fff" fill-opacity=".45"/><polygon points="91.5,626.4 70.1,638.8 48.6,626.4 48.6,601.6 70.1,589.2 91.5,601.6" fill="#e9a126" stroke="#c9861a" stroke-width="1.6"/><ellipse cx="63.6" cy="606.2" rx="5.7" ry="3.1" fill="#fff" fill-opacity=".45"/><polygon points="136.6,626.4 115.1,638.8 93.6,626.4 93.6,601.6 115.1,589.2 136.6,601.6" fill="#f3d88c" stroke="#c9861a" stroke-width="1.6"/><polygon points="181.6,626.4 160.1,638.8 138.7,626.4 138.7,601.6 160.1,589.2 181.6,601.6" fill="#f3d88c" stroke="#c9861a" stroke-width="1.6"/><polygon points="226.6,626.4 205.2,638.8 183.7,626.4 183.7,601.6 205.2,589.2 226.6,601.6" fill="#f3d88c" stroke="#c9861a" stroke-width="1.6"/><polygon points="271.7,626.4 250.2,638.8 228.7,626.4 228.7,601.6 250.2,589.2 271.7,601.6" fill="#f3d88c" stroke="#c9861a" stroke-width="1.6"/><polygon points="316.7,626.4 295.2,638.8 273.8,626.4 273.8,601.6 295.2,589.2 316.7,601.6" fill="#f3d88c" stroke="#c9861a" stroke-width="1.6"/><polygon points="361.7,626.4 340.3,638.8 318.8,626.4 318.8,601.6 340.3,589.2 361.7,601.6" fill="#e9a126" stroke="#c9861a" stroke-width="1.6"/><ellipse cx="333.8" cy="606.2" rx="5.7" ry="3.1" fill="#fff" fill-opacity=".45"/><polygon points="406.8,626.4 385.3,638.8 363.8,626.4 363.8,601.6 385.3,589.2 406.8,601.6" fill="#e9a126" stroke="#c9861a" stroke-width="1.6"/><ellipse cx="378.8" cy="606.2" rx="5.7" ry="3.1" fill="#fff" fill-opacity=".45"/><polygon points="451.8,626.4 430.3,638.8 408.9,626.4 408.9,601.6 430.3,589.2 451.8,601.6" fill="#f3d88c" stroke="#c9861a" stroke-width="1.6"/><polygon points="496.8,626.4 475.4,638.8 453.9,626.4 453.9,601.6 475.4,589.2 496.8,601.6" fill="#f3d88c" stroke="#c9861a" stroke-width="1.6"/><polygon points="541.9,626.4 520.4,638.8 498.9,626.4 498.9,601.6 520.4,589.2 541.9,601.6" fill="#f3d88c" stroke="#c9861a" stroke-width="1.6"/><polygon points="586.9,626.4 565.4,638.8 544.0,626.4 544.0,601.6 565.4,589.2 586.9,601.6" fill="#f3d88c" stroke="#c9861a" stroke-width="1.6"/><polygon points="631.9,626.4 610.5,638.8 589.0,626.4 589.0,601.6 610.5,589.2 631.9,601.6" fill="#f3d88c" stroke="#c9861a" stroke-width="1.6"/><polygon points="677.0,626.4 655.5,638.8 634.0,626.4 634.0,601.6 655.5,589.2 677.0,601.6" fill="#e9a126" stroke="#c9861a" stroke-width="1.6"/><ellipse cx="649.0" cy="606.2" rx="5.7" ry="3.1" fill="#fff" fill-opacity=".45"/><polygon points="722.0,626.4 700.5,638.8 679.1,626.4 679.1,601.6 700.5,589.2 722.0,601.6" fill="#e9a126" stroke="#c9861a" stroke-width="1.6"/><ellipse cx="694.0" cy="606.2" rx="5.7" ry="3.1" fill="#fff" fill-opacity=".45"/><polygon points="767.0,626.4 745.6,638.8 724.1,626.4 724.1,601.6 745.6,589.2 767.0,601.6" fill="#f3d88c" stroke="#c9861a" stroke-width="1.6"/><polygon points="812.1,626.4 790.6,638.8 769.1,626.4 769.1,601.6 790.6,589.2 812.1,601.6" fill="#f3d88c" stroke="#c9861a" stroke-width="1.6"/><polygon points="857.1,626.4 835.6,638.8 814.2,626.4 814.2,601.6 835.6,589.2 857.1,601.6" fill="#f3d88c" stroke="#c9861a" stroke-width="1.6"/><rect width="800" height="600" fill="url(#v)"/><g transform="translate(420 300) rotate(-20) scale(2.2)"><ellipse cx="-4" cy="-13" rx="11" ry="7" fill="#fff" fill-opacity=".75" stroke="#c9b48a" stroke-width="1" transform="rotate(-25 -4 -13)"/><ellipse cx="6" cy="-13" rx="10" ry="6" fill="#fff" fill-opacity=".6" stroke="#c9b48a" stroke-width="1" transform="rotate(20 6 -13)"/><ellipse cx="0" cy="0" rx="16" ry="10.5" fill="#f2b631"/><path d="M-6 -9.6 Q-3 0 -6 9.6 M2 -10.4 Q5 0 2 10.4" stroke="#2a1f14" stroke-width="4" fill="none"/><circle cx="15" cy="-1" r="6" fill="#2a1f14"/><path d="M-16 0 l-6 1.5" stroke="#2a1f14" stroke-width="2.5" stroke-linecap="round"/><path d="M18 -6 q4 -8 9 -8 M17 -5 q7 -4 11 -2" stroke="#2a1f14" stroke-width="1.4" fill="none" stroke-linecap="round"/></g><g transform="translate(250 180) rotate(30) scale(1.6)"><ellipse cx="-4" cy="-13" rx="11" ry="7" fill="#fff" fill-opacity=".75" stroke="#c9b48a" stroke-width="1" transform="rotate(-25 -4 -13)"/><ellipse cx="6" cy="-13" rx="10" ry="6" fill="#fff" fill-opacity=".6" stroke="#c9b48a" stroke-width="1" transform="rotate(20 6 -13)"/><ellipse cx="0" cy="0" rx="16" ry="10.5" fill="#f2b631"/><path d="M-6 -9.6 Q-3 0 -6 9.6 M2 -10.4 Q5 0 2 10.4" stroke="#2a1f14" stroke-width="4" fill="none"/><circle cx="15" cy="-1" r="6" fill="#2a1f14"/><path d="M-16 0 l-6 1.5" stroke="#2a1f14" stroke-width="2.5" stroke-linecap="round"/><path d="M18 -6 q4 -8 9 -8 M17 -5 q7 -4 11 -2" stroke="#2a1f14" stroke-width="1.4" fill="none" stroke-linecap="round"/></g></svg>