<svg xmlns="http://www.w3.org/2000/svg" viewBox="0 0 800 600" width="800" height="600"><defs><linearGradient id="sky" x1="0" y1="0" x2="0" y2="1"><stop offset="0" stop-color="#f9e2a8"/><stop offset="1" stop-color="#fdf3dc"/></linearGradient><radialGradient id="sun" cx=".5" cy=".5" r=".5"><stop offset="0" stop-color="#fff5d6"/><stop offset="1" stop-color="#fff5d6" stop-opacity="0"/></radialGradient><linearGradient id="steel" x1="0" y1="0" x2="1" y2="0"><stop offset="0" stop-color="#9aa3a6"/><stop offset=".35" stop-color="#e8ecee"/><stop offset=".7" stop-color="#b9c1c4"/><stop offset="1" stop-color="#8a9396"/></linearGradient></defs><rect width="800" height="600" fill="#f3e6c8"/><rect y="440" width="800" height="160" fill="#c9a877"/><rect y="440" width="800" height="6" fill="#a78556"/><rect x="560" y="80" width="170" height="130" rx="6" fill="#fdf3dc" stroke="#b58a55" stroke-width="10"/><line x1="645" y1="80" x2="645" y2="210" stroke="#b58a55" stroke-width="6"/><rect x="230" y="150" width="240" height="280" rx="16" fill="url(#steel)"/><ellipse cx="350" cy="150" rx="120" ry="24" fill="#d5dcde"/><ellipse cx="350" cy="150" rx="104" ry="18" fill="#6f7a7e"/><rect x="340" y="90" width="20" height="50" fill="#6f7a7e"/><rect x="300" y="80" width="100" height="16" rx="8" fill="#555f63"/><circle cx="410" cy="88" r="12" fill="#2c4431"/><rect x="250" y="430" width="16" height="40" fill="#6f7a7e"/><rect x="434" y="430" width="16" height="40" fill="#6f7a7e"/><rect x="330" y="380" width="40" height="22" rx="4" fill="#555f63"/><rect x="342" y="398" width="16" height="16" fill="#555f63"/><path d="M350 414 q-4 30 0 60 q4 -30 0 -60" fill="#e9a126"/><rect x="346" y="414" width="8" height="70" fill="#e9a126"/><path d="M290 480 L410 480 L400 560 L300 560Z" fill="#fff" fill-opacity=".85" stroke="#d8cdb8" stroke-width="2"/><path d="M296 504 L404 504 L400 560 L300 560Z" fill="#e39a1f"/><rect x="560" y="330" width="140" height="110" rx="6" fill="#b58a55"/><rect x="560" y="300" width="140" height="34" rx="4" fill="#a57a48"/><rect x="575" y="250" width="14" height="60" rx="2" fill="#e0a33a" stroke="#a57a48" stroke-width="3"/><rect x="597" y="250" width="14" height="60" rx="2" fill="#e0a33a" stroke="#a57a48" stroke-width="3"/><rect x="619" y="250" width="14" height="60" rx="2" fill="#e0a33a" stroke="#a57a48" stroke-width="3"/><rect x="641" y="250" width="14" height="60" rx="2" fill="#e0a33a" stroke="#a57a48" stroke-width="3"/><rect x="663" y="250" width="14" height="60" rx="2" fill="#e0a33a" stroke="#a57a48" stroke-width="3"/><rect x="685" y="250" width="14" height="60" rx="2" fill="#e0a33a" stroke="#a57a48" stroke-width="3"/></svg>