<svg xmlns="http://www.w3.org/2000/svg" viewBox="0 0 800 600" width="800" height="600"><defs><linearGradient id="sky" x1="0" y1="0" x2="0" y2="1"><stop offset="0" stop-color="#f9e2a8"/><stop offset="1" stop-color="#fdf3dc"/></linearGradient><radialGradient id="sun" cx=".5" cy=".5" r=".5"><stop offset="0" stop-color="#fff5d6"/><stop offset="1" stop-color="#fff5d6" stop-opacity="0"/></radialGradient></defs><rect width="800" height="600" fill="url(#sky)"/><circle cx="620" cy="150" r="140" fill="url(#sun)"/><circle cx="620" cy="150" r="46" fill="#fbd97e"/><path d="M0 330 Q160 250 330 300 T800 270 L800 600 L0 600Z" fill="#b8c49a"/><path d="M0 380 Q220 320 420 370 T800 350 L800 600 L0 600Z" fill="#8fa274"/><g transform="translate(90 330) scale(1)"><rect x="-5" y="-10" width="10" height="50" fill="#5a4128"/><circle cx="0" cy="-40" r="38" fill="#4d6b45"/><circle cx="-22" cy="-22" r="26" fill="#56774d"/><circle cx="20" cy="-20" r="28" fill="#44613d"/></g><g transform="translate(150 330) scale(0.8)"><rect x="-5" y="-10" width="10" height="50" fill="#5a4128"/><circle cx="0" cy="-40" r="38" fill="#4d6b45"/><circle cx="-22" cy="-22" r="26" fill="#56774d"/><circle cx="20" cy="-20" r="28" fill="#44613d"/></g><g transform="translate(690 330) scale(1.1)"><rect x="-5" y="-10" width="10" height="50" fill="#5a4128"/><circle cx="0" cy="-40" r="38" fill="#4d6b45"/><circle cx="-22" cy="-22" r="26" fill="#56774d"/><circle cx="20" cy="-20" r="28" fill="#44613d"/></g><g transform="translate(750 330) scale(0.8)"><rect x="-5" y="-10" width="10" height="50" fill="#5a4128"/><circle cx="0" cy="-40" r="38" fill="#4d6b45"/><circle cx="-22" cy="-22" r="26" fill="#56774d"/><circle cx="20" cy="-20" r="28" fill="#44613d"/></g><path d="M0 440 Q250 400 520 440 T800 430 L800 600 L0 600Z" fill="#6f8a5b"/><g transform="translate(150 330) scale(0.95)"><rect x="-10" y="-6" width="140" height="18" rx="3" fill="#2c4431"/><rect x="0" y="12" width="120" height="58" fill="#efe0bd"/><rect x="0" y="72" width="120" height="58" fill="#efe0bd"/><rect x="0" y="68" width="120" height="4" fill="#000" fill-opacity=".12"/><rect x="42" y="36" width="36" height="8" rx="4" fill="#000" fill-opacity=".15"/><rect x="42" y="96" width="36" height="8" rx="4" fill="#000" fill-opacity=".15"/><rect x="30" y="126" width="60" height="6" rx="2" fill="#3a2a18"/><rect x="6" y="132" width="10" height="32" fill="#6b4a2a"/><rect x="104" y="132" width="10" height="32" fill="#6b4a2a"/><rect x="-6" y="146" width="132" height="8" fill="#7d5733"/></g><g transform="translate(330 318) scale(1.0)"><rect x="-10" y="-6" width="140" height="18" rx="3" fill="#7f430a"/><rect x="0" y="12" width="120" height="58" fill="#e7cf9c"/><rect x="0" y="72" width="120" height="58" fill="#e7cf9c"/><rect x="0" y="68" width="120" height="4" fill="#000" fill-opacity=".12"/><rect x="42" y="36" width="36" height="8" rx="4" fill="#000" fill-opacity=".15"/><rect x="42" y="96" width="36" height="8" rx="4" fill="#000" fill-opacity=".15"/><rect x="30" y="126" width="60" height="6" rx="2" fill="#3a2a18"/><rect x="6" y="132" width="10" height="32" fill="#6b4a2a"/><rect x="104" y="132" width="10" height="32" fill="#6b4a2a"/><rect x="-6" y="146" width="132" height="8" fill="#7d5733"/></g><g transform="translate(520 330) scale(0.95)"><rect x="-10" y="-6" width="140" height="18" rx="3" fill="#2c4431"/><rect x="0" y="12" width="120" height="58" fill="#efe0bd"/><rect x="0" y="72" width="120" height="58" fill="#efe0bd"/><rect x="0" y="68" width="120" height="4" fill="#000" fill-opacity=".12"/><rect x="42" y="36" width="36" height="8" rx="4" fill="#000" fill-opacity=".15"/><rect x="42" y="96" width="36" height="8" rx="4" fill="#000" fill-opacity=".15"/><rect x="30" y="126" width="60" height="6" rx="2" fill="#3a2a18"/><rect x="6" y="132" width="10" height="32" fill="#6b4a2a"/><rect x="104" y="132" width="10" height="32" fill="#6b4a2a"/><rect x="-6" y="146" width="132" height="8" fill="#7d5733"/></g><path d="M0 520 Q400 480 800 520 L800 600 L0 600Z" fill="#56704a"/><path d="M251 558 Q246 548.0 251 538" stroke="#5d7a4c" stroke-width="3" fill="none" stroke-linecap="round"/><g transform="translate(251 538)"><ellipse cx="0" cy="-7.4" rx="4.3" ry="7.2" fill="#fff" transform="rotate(0.0)"/><ellipse cx="0" cy="-7.4" rx="4.3" ry="7.2" fill="#fff" transform="rotate(72.0)"/><ellipse cx="0" cy="-7.4" rx="4.3" ry="7.2" fill="#fff" transform="rotate(144.0)"/><ellipse cx="0" cy="-7.4" rx="4.3" ry="7.2" fill="#fff" transform="rotate(216.0)"/><ellipse cx="0" cy="-7.4" rx="4.3" ry="7.2" fill="#fff" transform="rotate(288.0)"/><circle r="3.8" fill="#e3a62b"/></g><path d="M500 539 Q495 529.0 500 519" stroke="#5d7a4c" stroke-width="3" fill="none" stroke-linecap="round"/><g transform="translate(500 519)"><ellipse cx="0" cy="-4.3" rx="2.5" ry="4.2" fill="#fff" transform="rotate(0.0)"/><ellipse cx="0" cy="-4.3" rx="2.5" ry="4.2" fill="#fff" transform="rotate(72.0)"/><ellipse cx="0" cy="-4.3" rx="2.5" ry="4.2" fill="#fff" transform="rotate(144.0)"/><ellipse cx="0" cy="-4.3" rx="2.5" ry="4.2" fill="#fff" transform="rotate(216.0)"/><ellipse cx="0" cy="-4.3" rx="2.5" ry="4.2" fill="#fff" transform="rotate(288.0)"/><circle r="2.2" fill="#e3a62b"/></g><path d="M421 590 Q419 580.0 421 570" stroke="#5d7a4c" stroke-width="3" fill="none" stroke-linecap="round"/><g transform="translate(421 570)"><ellipse cx="0" cy="-4.3" rx="2.5" ry="4.2" fill="#f6d27a" transform="rotate(0.0)"/><ellipse cx="0" cy="-4.3" rx="2.5" ry="4.2" fill="#f6d27a" transform="rotate(72.0)"/><ellipse cx="0" cy="-4.3" rx="2.5" ry="4.2" fill="#f6d27a" transform="rotate(144.0)"/><ellipse cx="0" cy="-4.3" rx="2.5" ry="4.2" fill="#f6d27a" transform="rotate(216.0)"/><ellipse cx="0" cy="-4.3" rx="2.5" ry="4.2" fill="#f6d27a" transform="rotate(288.0)"/><circle r="2.2" fill="#e3a62b"/></g><path d="M542 588 Q541 578.0 542 568" stroke="#5d7a4c" stroke-width="3" fill="none" stroke-linecap="round"/><g transform="translate(542 568)"><ellipse cx="0" cy="-5.6" rx="3.2" ry="5.4" fill="#f6d27a" transform="rotate(0.0)"/><ellipse cx="0" cy="-5.6" rx="3.2" ry="5.4" fill="#f6d27a" transform="rotate(72.0)"/><ellipse cx="0" cy="-5.6" rx="3.2" ry="5.4" fill="#f6d27a" transform="rotate(144.0)"/><ellipse cx="0" cy="-5.6" rx="3.2" ry="5.4" fill="#f6d27a" transform="rotate(216.0)"/><ellipse cx="0" cy="-5.6" rx="3.2" ry="5.4" fill="#f6d27a" transform="rotate(288.0)"/><circle r="2.9" fill="#e3a62b"/></g><path d="M118 553 Q115 543.0 118 533" stroke="#5d7a4c" stroke-width="3" fill="none" stroke-linecap="round"/><g transform="translate(118 533)"><ellipse cx="0" cy="-4.3" rx="2.5" ry="4.2" fill="#f2c3a8" transform="rotate(0.0)"/><ellipse cx="0" cy="-4.3" rx="2.5" ry="4.2" fill="#f2c3a8" transform="rotate(72.0)"/><ellipse cx="0" cy="-4.3" rx="2.5" ry="4.2" fill="#f2c3a8" transform="rotate(144.0)"/><ellipse cx="0" cy="-4.3" rx="2.5" ry="4.2" fill="#f2c3a8" transform="rotate(216.0)"/><ellipse cx="0" cy="-4.3" rx="2.5" ry="4.2" fill="#f2c3a8" transform="rotate(288.0)"/><circle r="2.2" fill="#e3a62b"/></g><path d="M288 544 Q284 534.0 288 524" stroke="#5d7a4c" stroke-width="3" fill="none" stroke-linecap="round"/><g transform="translate(288 524)"><ellipse cx="0" cy="-5.6" rx="3.2" ry="5.4" fill="#f2c3a8" transform="rotate(0.0)"/><ellipse cx="0" cy="-5.6" rx="3.2" ry="5.4" fill="#f2c3a8" transform="rotate(72.0)"/><ellipse cx="0" cy="-5.6" rx="3.2" ry="5.4" fill="#f2c3a8" transform="rotate(144.0)"/><ellipse cx="0" cy="-5.6" rx="3.2" ry="5.4" fill="#f2c3a8" transform="rotate(216.0)"/><ellipse cx="0" cy="-5.6" rx="3.2" ry="5.4" fill="#f2c3a8" transform="rotate(288.0)"/><circle r="2.9" fill="#e3a62b"/></g><path d="M652 567 Q647 557.0 652 547" stroke="#5d7a4c" stroke-width="3" fill="none" stroke-linecap="round"/><g transform="translate(652 547)"><ellipse cx="0" cy="-6.8" rx="4.0" ry="6.6" fill="#f2c3a8" transform="rotate(0.0)"/><ellipse cx="0" cy="-6.8" rx="4.0" ry="6.6" fill="#f2c3a8" transform="rotate(72.0)"/><ellipse cx="0" cy="-6.8" rx="4.0" ry="6.6" fill="#f2c3a8" transform="rotate(144.0)"/><ellipse cx="0" cy="-6.8" rx="4.0" ry="6.6" fill="#f2c3a8" transform="rotate(216.0)"/><ellipse cx="0" cy="-6.8" rx="4.0" ry="6.6" fill="#f2c3a8" transform="rotate(288.0)"/><circle r="3.5" fill="#e3a62b"/></g><path d="M697 569 Q699 559.0 697 549" stroke="#5d7a4c" stroke-width="3" fill="none" stroke-linecap="round"/><g transform="translate(697 549)"><ellipse cx="0" cy="-5.0" rx="2.9" ry="4.8" fill="#f6d27a" transform="rotate(0.0)"/><ellipse cx="0" cy="-5.0" rx="2.9" ry="4.8" fill="#f6d27a" transform="rotate(72.0)"/><ellipse cx="0" cy="-5.0" rx="2.9" ry="4.8" fill="#f6d27a" transform="rotate(144.0)"/><ellipse cx="0" cy="-5.0" rx="2.9" ry="4.8" fill="#f6d27a" transform="rotate(216.0)"/><ellipse cx="0" cy="-5.0" rx="2.9" ry="4.8" fill="#f6d27a" transform="rotate(288.0)"/><circle r="2.6" fill="#e3a62b"/></g><path d="M263 580 Q261 570.0 263 560" stroke="#5d7a4c" stroke-width="3" fill="none" stroke-linecap="round"/><g transform="translate(263 560)"><ellipse cx="0" cy="-4.3" rx="2.5" ry="4.2" fill="#f2c3a8" transform="rotate(0.0)"/><ellipse cx="0" cy="-4.3" rx="2.5" ry="4.2" fill="#f2c3a8" transform="rotate(72.0)"/><ellipse cx="0" cy="-4.3" rx="2.5" ry="4.2" fill="#f2c3a8" transform="rotate(144.0)"/><ellipse cx="0" cy="-4.3" rx="2.5" ry="4.2" fill="#f2c3a8" transform="rotate(216.0)"/><ellipse cx="0" cy="-4.3" rx="2.5" ry="4.2" fill="#f2c3a8" transform="rotate(288.0)"/><circle r="2.2" fill="#e3a62b"/></g><path d="M17 557 Q20 547.0 17 537" stroke="#5d7a4c" stroke-width="3" fill="none" stroke-linecap="round"/><g transform="translate(17 537)"><ellipse cx="0" cy="-7.4" rx="4.3" ry="7.2" fill="#f2c3a8" transform="rotate(0.0)"/><ellipse cx="0" cy="-7.4" rx="4.3" ry="7.2" fill="#f2c3a8" transform="rotate(72.0)"/><ellipse cx="0" cy="-7.4" rx="4.3" ry="7.2" fill="#f2c3a8" transform="rotate(144.0)"/><ellipse cx="0" cy="-7.4" rx="4.3" ry="7.2" fill="#f2c3a8" transform="rotate(216.0)"/><ellipse cx="0" cy="-7.4" rx="4.3" ry="7.2" fill="#f2c3a8" transform="rotate(288.0)"/><circle r="3.8" fill="#e3a62b"/></g><path d="M530 544 Q530 534.0 530 524" stroke="#5d7a4c" stroke-width="3" fill="none" stroke-linecap="round"/><g transform="translate(530 524)"><ellipse cx="0" cy="-6.2" rx="3.6" ry="6.0" fill="#f2c3a8" transform="rotate(0.0)"/><ellipse cx="0" cy="-6.2" rx="3.6" ry="6.0" fill="#f2c3a8" transform="rotate(72.0)"/><ellipse cx="0" cy="-6.2" rx="3.6" ry="6.0" fill="#f2c3a8" transform="rotate(144.0)"/><ellipse cx="0" cy="-6.2" rx="3.6" ry="6.0" fill="#f2c3a8" transform="rotate(216.0)"/><ellipse cx="0" cy="-6.2" rx="3.6" ry="6.0" fill="#f2c3a8" transform="rotate(288.0)"/><circle r="3.2" fill="#e3a62b"/></g><path d="M451 577 Q447 567.0 451 557" stroke="#5d7a4c" stroke-width="3" fill="none" stroke-linecap="round"/><g transform="translate(451 557)"><ellipse cx="0" cy="-5.0" rx="2.9" ry="4.8" fill="#f2c3a8" transform="rotate(0.0)"/><ellipse cx="0" cy="-5.0" rx="2.9" ry="4.8" fill="#f2c3a8" transform="rotate(72.0)"/><ellipse cx="0" cy="-5.0" rx="2.9" ry="4.8" fill="#f2c3a8" transform="rotate(144.0)"/><ellipse cx="0" cy="-5.0" rx="2.9" ry="4.8" fill="#f2c3a8" transform="rotate(216.0)"/><ellipse cx="0" cy="-5.0" rx="2.9" ry="4.8" fill="#f2c3a8" transform="rotate(288.0)"/><circle r="2.6" fill="#e3a62b"/></g><path d="M275 525 Q270 515.0 275 505" stroke="#5d7a4c" stroke-width="3" fill="none" stroke-linecap="round"/><g transform="translate(275 505)"><ellipse cx="0" cy="-4.3" rx="2.5" ry="4.2" fill="#fff" transform="rotate(0.0)"/><ellipse cx="0" cy="-4.3" rx="2.5" ry="4.2" fill="#fff" transform="rotate(72.0)"/><ellipse cx="0" cy="-4.3" rx="2.5" ry="4.2" fill="#fff" transform="rotate(144.0)"/><ellipse cx="0" cy="-4.3" rx="2.5" ry="4.2" fill="#fff" transform="rotate(216.0)"/><ellipse cx="0" cy="-4.3" rx="2.5" ry="4.2" fill="#fff" transform="rotate(288.0)"/><circle r="2.2" fill="#e3a62b"/></g><path d="M651 555 Q653 545.0 651 535" stroke="#5d7a4c" stroke-width="3" fill="none" stroke-linecap="round"/><g transform="translate(651 535)"><ellipse cx="0" cy="-6.8" rx="4.0" ry="6.6" fill="#fff" transform="rotate(0.0)"/><ellipse cx="0" cy="-6.8" rx="4.0" ry="6.6" fill="#fff" transform="rotate(72.0)"/><ellipse cx="0" cy="-6.8" rx="4.0" ry="6.6" fill="#fff" transform="rotate(144.0)"/><ellipse cx="0" cy="-6.8" rx="4.0" ry="6.6" fill="#fff" transform="rotate(216.0)"/><ellipse cx="0" cy="-6.8" rx="4.0" ry="6.6" fill="#fff" transform="rotate(288.0)"/><circle r="3.5" fill="#e3a62b"/></g><path d="M727 563 Q723 553.0 727 543" stroke="#5d7a4c" stroke-width="3" fill="none" stroke-linecap="round"/><g transform="translate(727 543)"><ellipse cx="0" cy="-7.4" rx="4.3" ry="7.2" fill="#f6d27a" transform="rotate(0.0)"/><ellipse cx="0" cy="-7.4" rx="4.3" ry="7.2" fill="#f6d27a" transform="rotate(72.0)"/><ellipse cx="0" cy="-7.4" rx="4.3" ry="7.2" fill="#f6d27a" transform="rotate(144.0)"/><ellipse cx="0" cy="-7.4" rx="4.3" ry="7.2" fill="#f6d27a" transform="rotate(216.0)"/><ellipse cx="0" cy="-7.4" rx="4.3" ry="7.2" fill="#f6d27a" transform="rotate(288.0)"/><circle r="3.8" fill="#e3a62b"/></g><path d="M78 572 Q75 562.0 78 552" stroke="#5d7a4c" stroke-width="3" fill="none" stroke-linecap="round"/><g transform="translate(78 552)"><ellipse cx="0" cy="-7.4" rx="4.3" ry="7.2" fill="#fff" transform="rotate(0.0)"/><ellipse cx="0" cy="-7.4" rx="4.3" ry="7.2" fill="#fff" transform="rotate(72.0)"/><ellipse cx="0" cy="-7.4" rx="4.3" ry="7.2" fill="#fff" transform="rotate(144.0)"/><ellipse cx="0" cy="-7.4" rx="4.3" ry="7.2" fill="#fff" transform="rotate(216.0)"/><ellipse cx="0" cy="-7.4" rx="4.3" ry="7.2" fill="#fff" transform="rotate(288.0)"/><circle r="3.8" fill="#e3a62b"/></g><path d="M292 543 Q291 533.0 292 523" stroke="#5d7a4c" stroke-width="3" fill="none" stroke-linecap="round"/><g transform="translate(292 523)"><ellipse cx="0" cy="-6.2" rx="3.6" ry="6.0" fill="#f2c3a8" transform="rotate(0.0)"/><ellipse cx="0" cy="-6.2" rx="3.6" ry="6.0" fill="#f2c3a8" transform="rotate(72.0)"/><ellipse cx="0" cy="-6.2" rx="3.6" ry="6.0" fill="#f2c3a8" transform="rotate(144.0)"/><ellipse cx="0" cy="-6.2" rx="3.6" ry="6.0" fill="#f2c3a8" transform="rotate(216.0)"/><ellipse cx="0" cy="-6.2" rx="3.6" ry="6.0" fill="#f2c3a8" transform="rotate(288.0)"/><circle r="3.2" fill="#e3a62b"/></g><path d="M659 591 Q656 581.0 659 571" stroke="#5d7a4c" stroke-width="3" fill="none" stroke-linecap="round"/><g transform="translate(659 571)"><ellipse cx="0" cy="-5.6" rx="3.2" ry="5.4" fill="#fff" transform="rotate(0.0)"/><ellipse cx="0" cy="-5.6" rx="3.2" ry="5.4" fill="#fff" transform="rotate(72.0)"/><ellipse cx="0" cy="-5.6" rx="3.2" ry="5.4" fill="#fff" transform="rotate(144.0)"/><ellipse cx="0" cy="-5.6" rx="3.2" ry="5.4" fill="#fff" transform="rotate(216.0)"/><ellipse cx="0" cy="-5.6" rx="3.2" ry="5.4" fill="#fff" transform="rotate(288.0)"/><circle r="2.9" fill="#e3a62b"/></g><path d="M73 610 Q70 600.0 73 590" stroke="#5d7a4c" stroke-width="3" fill="none" stroke-linecap="round"/><g transform="translate(73 590)"><ellipse cx="0" cy="-5.6" rx="3.2" ry="5.4" fill="#f6d27a" transform="rotate(0.0)"/><ellipse cx="0" cy="-5.6" rx="3.2" ry="5.4" fill="#f6d27a" transform="rotate(72.0)"/><ellipse cx="0" cy="-5.6" rx="3.2" ry="5.4" fill="#f6d27a" transform="rotate(144.0)"/><ellipse cx="0" cy="-5.6" rx="3.2" ry="5.4" fill="#f6d27a" transform="rotate(216.0)"/><ellipse cx="0" cy="-5.6" rx="3.2" ry="5.4" fill="#f6d27a" transform="rotate(288.0)"/><circle r="2.9" fill="#e3a62b"/></g><path d="M135 562 Q131 552.0 135 542" stroke="#5d7a4c" stroke-width="3" fill="none" stroke-linecap="round"/><g transform="translate(135 542)"><ellipse cx="0" cy="-5.6" rx="3.2" ry="5.4" fill="#fff" transform="rotate(0.0)"/><ellipse cx="0" cy="-5.6" rx="3.2" ry="5.4" fill="#fff" transform="rotate(72.0)"/><ellipse cx="0" cy="-5.6" rx="3.2" ry="5.4" fill="#fff" transform="rotate(144.0)"/><ellipse cx="0" cy="-5.6" rx="3.2" ry="5.4" fill="#fff" transform="rotate(216.0)"/><ellipse cx="0" cy="-5.6" rx="3.2" ry="5.4" fill="#fff" transform="rotate(288.0)"/><circle r="2.9" fill="#e3a62b"/></g><path d="M36 525 Q35 515.0 36 505" stroke="#5d7a4c" stroke-width="3" fill="none" stroke-linecap="round"/><g transform="translate(36 505)"><ellipse cx="0" cy="-7.4" rx="4.3" ry="7.2" fill="#fff" transform="rotate(0.0)"/><ellipse cx="0" cy="-7.4" rx="4.3" ry="7.2" fill="#fff" transform="rotate(72.0)"/><ellipse cx="0" cy="-7.4" rx="4.3" ry="7.2" fill="#fff" transform="rotate(144.0)"/><ellipse cx="0" cy="-7.4" rx="4.3" ry="7.2" fill="#fff" transform="rotate(216.0)"/><ellipse cx="0" cy="-7.4" rx="4.3" ry="7.2" fill="#fff" transform="rotate(288.0)"/><circle r="3.8" fill="#e3a62b"/></g><path d="M302 606 Q301 596.0 302 586" stroke="#5d7a4c" stroke-width="3" fill="none" stroke-linecap="round"/><g transform="translate(302 586)"><ellipse cx="0" cy="-4.3" rx="2.5" ry="4.2" fill="#f2c3a8" transform="rotate(0.0)"/><ellipse cx="0" cy="-4.3" rx="2.5" ry="4.2" fill="#f2c3a8" transform="rotate(72.0)"/><ellipse cx="0" cy="-4.3" rx="2.5" ry="4.2" fill="#f2c3a8" transform="rotate(144.0)"/><ellipse cx="0" cy="-4.3" rx="2.5" ry="4.2" fill="#f2c3a8" transform="rotate(216.0)"/><ellipse cx="0" cy="-4.3" rx="2.5" ry="4.2" fill="#f2c3a8" transform="rotate(288.0)"/><circle r="2.2" fill="#e3a62b"/></g><path d="M305 561 Q301 551.0 305 541" stroke="#5d7a4c" stroke-width="3" fill="none" stroke-linecap="round"/><g transform="translate(305 541)"><ellipse cx="0" cy="-7.4" rx="4.3" ry="7.2" fill="#fff" transform="rotate(0.0)"/><ellipse cx="0" cy="-7.4" rx="4.3" ry="7.2" fill="#fff" transform="rotate(72.0)"/><ellipse cx="0" cy="-7.4" rx="4.3" ry="7.2" fill="#fff" transform="rotate(144.0)"/><ellipse cx="0" cy="-7.4" rx="4.3" ry="7.2" fill="#fff" transform="rotate(216.0)"/><ellipse cx="0" cy="-7.4" rx="4.3" ry="7.2" fill="#fff" transform="rotate(288.0)"/><circle r="3.8" fill="#e3a62b"/></g><path d="M645 607 Q640 597.0 645 587" stroke="#5d7a4c" stroke-width="3" fill="none" stroke-linecap="round"/><g transform="translate(645 587)"><ellipse cx="0" cy="-5.6" rx="3.2" ry="5.4" fill="#f6d27a" transform="rotate(0.0)"/><ellipse cx="0" cy="-5.6" rx="3.2" ry="5.4" fill="#f6d27a" transform="rotate(72.0)"/><ellipse cx="0" cy="-5.6" rx="3.2" ry="5.4" fill="#f6d27a" transform="rotate(144.0)"/><ellipse cx="0" cy="-5.6" rx="3.2" ry="5.4" fill="#f6d27a" transform="rotate(216.0)"/><ellipse cx="0" cy="-5.6" rx="3.2" ry="5.4" fill="#f6d27a" transform="rotate(288.0)"/><circle r="2.9" fill="#e3a62b"/></g><path d="M464 557 Q460 547.0 464 537" stroke="#5d7a4c" stroke-width="3" fill="none" stroke-linecap="round"/><g transform="translate(464 537)"><ellipse cx="0" cy="-5.6" rx="3.2" ry="5.4" fill="#fff" transform="rotate(0.0)"/><ellipse cx="0" cy="-5.6" rx="3.2" ry="5.4" fill="#fff" transform="rotate(72.0)"/><ellipse cx="0" cy="-5.6" rx="3.2" ry="5.4" fill="#fff" transform="rotate(144.0)"/><ellipse cx="0" cy="-5.6" rx="3.2" ry="5.4" fill="#fff" transform="rotate(216.0)"/><ellipse cx="0" cy="-5.6" rx="3.2" ry="5.4" fill="#fff" transform="rotate(288.0)"/><circle r="2.9" fill="#e3a62b"/></g><path d="M623 540 Q622 530.0 623 520" stroke="#5d7a4c" stroke-width="3" fill="none" stroke-linecap="round"/><g transform="translate(623 520)"><ellipse cx="0" cy="-6.8" rx="4.0" ry="6.6" fill="#fff" transform="rotate(0.0)"/><ellipse cx="0" cy="-6.8" rx="4.0" ry="6.6" fill="#fff" transform="rotate(72.0)"/><ellipse cx="0" cy="-6.8" rx="4.0" ry="6.6" fill="#fff" transform="rotate(144.0)"/><ellipse cx="0" cy="-6.8" rx="4.0" ry="6.6" fill="#fff" transform="rotate(216.0)"/><ellipse cx="0" cy="-6.8" rx="4.0" ry="6.6" fill="#fff" transform="rotate(288.0)"/><circle r="3.5" fill="#e3a62b"/></g><path d="M382 525 Q383 515.0 382 505" stroke="#5d7a4c" stroke-width="3" fill="none" stroke-linecap="round"/><g transform="translate(382 505)"><ellipse cx="0" cy="-5.0" rx="2.9" ry="4.8" fill="#f2c3a8" transform="rotate(0.0)"/><ellipse cx="0" cy="-5.0" rx="2.9" ry="4.8" fill="#f2c3a8" transform="rotate(72.0)"/><ellipse cx="0" cy="-5.0" rx="2.9" ry="4.8" fill="#f2c3a8" transform="rotate(144.0)"/><ellipse cx="0" cy="-5.0" rx="2.9" ry="4.8" fill="#f2c3a8" transform="rotate(216.0)"/><ellipse cx="0" cy="-5.0" rx="2.9" ry="4.8" fill="#f2c3a8" transform="rotate(288.0)"/><circle r="2.6" fill="#e3a62b"/></g><path d="M381 557 Q384 547.0 381 537" stroke="#5d7a4c" stroke-width="3" fill="none" stroke-linecap="round"/><g transform="translate(381 537)"><ellipse cx="0" cy="-4.3" rx="2.5" ry="4.2" fill="#fff" transform="rotate(0.0)"/><ellipse cx="0" cy="-4.3" rx="2.5" ry="4.2" fill="#fff" transform="rotate(72.0)"/><ellipse cx="0" cy="-4.3" rx="2.5" ry="4.2" fill="#fff" transform="rotate(144.0)"/><ellipse cx="0" cy="-4.3" rx="2.5" ry="4.2" fill="#fff" transform="rotate(216.0)"/><ellipse cx="0" cy="-4.3" rx="2.5" ry="4.2" fill="#fff" transform="rotate(288.0)"/><circle r="2.2" fill="#e3a62b"/></g><path d="M222 574 Q219 564.0 222 554" stroke="#5d7a4c" stroke-width="3" fill="none" stroke-linecap="round"/><g transform="translate(222 554)"><ellipse cx="0" cy="-4.3" rx="2.5" ry="4.2" fill="#fff" transform="rotate(0.0)"/><ellipse cx="0" cy="-4.3" rx="2.5" ry="4.2" fill="#fff" transform="rotate(72.0)"/><ellipse cx="0" cy="-4.3" rx="2.5" ry="4.2" fill="#fff" transform="rotate(144.0)"/><ellipse cx="0" cy="-4.3" rx="2.5" ry="4.2" fill="#fff" transform="rotate(216.0)"/><ellipse cx="0" cy="-4.3" rx="2.5" ry="4.2" fill="#fff" transform="rotate(288.0)"/><circle r="2.2" fill="#e3a62b"/></g><path d="M73 527 Q78 517.0 73 507" stroke="#5d7a4c" stroke-width="3" fill="none" stroke-linecap="round"/><g transform="translate(73 507)"><ellipse cx="0" cy="-5.0" rx="2.9" ry="4.8" fill="#f6d27a" transform="rotate(0.0)"/><ellipse cx="0" cy="-5.0" rx="2.9" ry="4.8" fill="#f6d27a" transform="rotate(72.0)"/><ellipse cx="0" cy="-5.0" rx="2.9" ry="4.8" fill="#f6d27a" transform="rotate(144.0)"/><ellipse cx="0" cy="-5.0" rx="2.9" ry="4.8" fill="#f6d27a" transform="rotate(216.0)"/><ellipse cx="0" cy="-5.0" rx="2.9" ry="4.8" fill="#f6d27a" transform="rotate(288.0)"/><circle r="2.6" fill="#e3a62b"/></g><path d="M631 525 Q633 515.0 631 505" stroke="#5d7a4c" stroke-width="3" fill="none" stroke-linecap="round"/><g transform="translate(631 505)"><ellipse cx="0" cy="-6.2" rx="3.6" ry="6.0" fill="#f6d27a" transform="rotate(0.0)"/><ellipse cx="0" cy="-6.2" rx="3.6" ry="6.0" fill="#f6d27a" transform="rotate(72.0)"/><ellipse cx="0" cy="-6.2" rx="3.6" ry="6.0" fill="#f6d27a" transform="rotate(144.0)"/><ellipse cx="0" cy="-6.2" rx="3.6" ry="6.0" fill="#f6d27a" transform="rotate(216.0)"/><ellipse cx="0" cy="-6.2" rx="3.6" ry="6.0" fill="#f6d27a" transform="rotate(288.0)"/><circle r="3.2" fill="#e3a62b"/></g><path d="M339 524 Q334 514.0 339 504" stroke="#5d7a4c" stroke-width="3" fill="none" stroke-linecap="round"/><g transform="translate(339 504)"><ellipse cx="0" cy="-6.8" rx="4.0" ry="6.6" fill="#f2c3a8" transform="rotate(0.0)"/><ellipse cx="0" cy="-6.8" rx="4.0" ry="6.6" fill="#f2c3a8" transform="rotate(72.0)"/><ellipse cx="0" cy="-6.8" rx="4.0" ry="6.6" fill="#f2c3a8" transform="rotate(144.0)"/><ellipse cx="0" cy="-6.8" rx="4.0" ry="6.6" fill="#f2c3a8" transform="rotate(216.0)"/><ellipse cx="0" cy="-6.8" rx="4.0" ry="6.6" fill="#f2c3a8" transform="rotate(288.0)"/><circle r="3.5" fill="#e3a62b"/></g><path d="M429 603 Q426 593.0 429 583" stroke="#5d7a4c" stroke-width="3" fill="none" stroke-linecap="round"/><g transform="translate(429 583)"><ellipse cx="0" cy="-6.2" rx="3.6" ry="6.0" fill="#f6d27a" transform="rotate(0.0)"/><ellipse cx="0" cy="-6.2" rx="3.6" ry="6.0" fill="#f6d27a" transform="rotate(72.0)"/><ellipse cx="0" cy="-6.2" rx="3.6" ry="6.0" fill="#f6d27a" transform="rotate(144.0)"/><ellipse cx="0" cy="-6.2" rx="3.6" ry="6.0" fill="#f6d27a" transform="rotate(216.0)"/><ellipse cx="0" cy="-6.2" rx="3.6" ry="6.0" fill="#f6d27a" transform="rotate(288.0)"/><circle r="3.2" fill="#e3a62b"/></g><path d="M257 576 Q257 566.0 257 556" stroke="#5d7a4c" stroke-width="3" fill="none" stroke-linecap="round"/><g transform="translate(257 556)"><ellipse cx="0" cy="-6.2" rx="3.6" ry="6.0" fill="#fff" transform="rotate(0.0)"/><ellipse cx="0" cy="-6.2" rx="3.6" ry="6.0" fill="#fff" transform="rotate(72.0)"/><ellipse cx="0" cy="-6.2" rx="3.6" ry="6.0" fill="#fff" transform="rotate(144.0)"/><ellipse cx="0" cy="-6.2" rx="3.6" ry="6.0" fill="#fff" transform="rotate(216.0)"/><ellipse cx="0" cy="-6.2" rx="3.6" ry="6.0" fill="#fff" transform="rotate(288.0)"/><circle r="3.2" fill="#e3a62b"/></g><path d="M234 573 Q235 563.0 234 553" stroke="#5d7a4c" stroke-width="3" fill="none" stroke-linecap="round"/><g transform="translate(234 553)"><ellipse cx="0" cy="-5.0" rx="2.9" ry="4.8" fill="#fff" transform="rotate(0.0)"/><ellipse cx="0" cy="-5.0" rx="2.9" ry="4.8" fill="#fff" transform="rotate(72.0)"/><ellipse cx="0" cy="-5.0" rx="2.9" ry="4.8" fill="#fff" transform="rotate(144.0)"/><ellipse cx="0" cy="-5.0" rx="2.9" ry="4.8" fill="#fff" transform="rotate(216.0)"/><ellipse cx="0" cy="-5.0" rx="2.9" ry="4.8" fill="#fff" transform="rotate(288.0)"/><circle r="2.6" fill="#e3a62b"/></g><path d="M230 583 Q227 573.0 230 563" stroke="#5d7a4c" stroke-width="3" fill="none" stroke-linecap="round"/><g transform="translate(230 563)"><ellipse cx="0" cy="-4.3" rx="2.5" ry="4.2" fill="#fff" transform="rotate(0.0)"/><ellipse cx="0" cy="-4.3" rx="2.5" ry="4.2" fill="#fff" transform="rotate(72.0)"/><ellipse cx="0" cy="-4.3" rx="2.5" ry="4.2" fill="#fff" transform="rotate(144.0)"/><ellipse cx="0" cy="-4.3" rx="2.5" ry="4.2" fill="#fff" transform="rotate(216.0)"/><ellipse cx="0" cy="-4.3" rx="2.5" ry="4.2" fill="#fff" transform="rotate(288.0)"/><circle r="2.2" fill="#e3a62b"/></g><path d="M270 552 Q267 542.0 270 532" stroke="#5d7a4c" stroke-width="3" fill="none" stroke-linecap="round"/><g transform="translate(270 532)"><ellipse cx="0" cy="-6.8" rx="4.0" ry="6.6" fill="#f6d27a" transform="rotate(0.0)"/><ellipse cx="0" cy="-6.8" rx="4.0" ry="6.6" fill="#f6d27a" transform="rotate(72.0)"/><ellipse cx="0" cy="-6.8" rx="4.0" ry="6.6" fill="#f6d27a" transform="rotate(144.0)"/><ellipse cx="0" cy="-6.8" rx="4.0" ry="6.6" fill="#f6d27a" transform="rotate(216.0)"/><ellipse cx="0" cy="-6.8" rx="4.0" ry="6.6" fill="#f6d27a" transform="rotate(288.0)"/><circle r="3.5" fill="#e3a62b"/></g><path d="M247 573 Q245 563.0 247 553" stroke="#5d7a4c" stroke-width="3" fill="none" stroke-linecap="round"/><g transform="translate(247 553)"><ellipse cx="0" cy="-5.0" rx="2.9" ry="4.8" fill="#f2c3a8" transform="rotate(0.0)"/><ellipse cx="0" cy="-5.0" rx="2.9" ry="4.8" fill="#f2c3a8" transform="rotate(72.0)"/><ellipse cx="0" cy="-5.0" rx="2.9" ry="4.8" fill="#f2c3a8" transform="rotate(144.0)"/><ellipse cx="0" cy="-5.0" rx="2.9" ry="4.8" fill="#f2c3a8" transform="rotate(216.0)"/><ellipse cx="0" cy="-5.0" rx="2.9" ry="4.8" fill="#f2c3a8" transform="rotate(288.0)"/><circle r="2.6" fill="#e3a62b"/></g><g transform="translate(300 250) rotate(-10) scale(1.1)"><ellipse cx="-4" cy="-13" rx="11" ry="7" fill="#fff" fill-opacity=".75" stroke="#c9b48a" stroke-width="1" transform="rotate(-25 -4 -13)"/><ellipse cx="6" cy="-13" rx="10" ry="6" fill="#fff" fill-opacity=".6" stroke="#c9b48a" stroke-width="1" transform="rotate(20 6 -13)"/><ellipse cx="0" cy="0" rx="16" ry="10.5" fill="#f2b631"/><path d="M-6 -9.6 Q-3 0 -6 9.6 M2 -10.4 Q5 0 2 10.4" stroke="#2a1f14" stroke-width="4" fill="none"/><circle cx="15" cy="-1" r="6" fill="#2a1f14"/><path d="M-16 0 l-6 1.5" stroke="#2a1f14" stroke-width="2.5" stroke-linecap="round"/><path d="M18 -6 q4 -8 9 -8 M17 -5 q7 -4 11 -2" stroke="#2a1f14" stroke-width="1.4" fill="none" stroke-linecap="round"/></g><g transform="translate(470 230) rotate(15) scale(0.9)"><ellipse cx="-4" cy="-13" rx="11" ry="7" fill="#fff" fill-opacity=".75" stroke="#c9b48a" stroke-width="1" transform="rotate(-25 -4 -13)"/><ellipse cx="6" cy="-13" rx="10" ry="6" fill="#fff" fill-opacity=".6" stroke="#c9b48a" stroke-width="1" transform="rotate(20 6 -13)"/><ellipse cx="0" cy="0" rx="16" ry="10.5" fill="#f2b631"/><path d="M-6 -9.6 Q-3 0 -6 9.6 M2 -10.4 Q5 0 2 10.4" stroke="#2a1f14" stroke-width="4" fill="none"/><circle cx="15" cy="-1" r="6" fill="#2a1f14"/><path d="M-16 0 l-6 1.5" stroke="#2a1f14" stroke-width="2.5" stroke-linecap="round"/><path d="M18 -6 q4 -8 9 -8 M17 -5 q7 -4 11 -2" stroke="#2a1f14" stroke-width="1.4" fill="none" stroke-linecap="round"/></g><g transform="translate(640 300) rotate(-5) scale(1)"><ellipse cx="-4" cy="-13" rx="11" ry="7" fill="#fff" fill-opacity=".75" stroke="#c9b48a" stroke-width="1" transform="rotate(-25 -4 -13)"/><ellipse cx="6" cy="-13" rx="10" ry="6" fill="#fff" fill-opacity=".6" stroke="#c9b48a" stroke-width="1" transform="rotate(20 6 -13)"/><ellipse cx="0" cy="0" rx="16" ry="10.5" fill="#f2b631"/><path d="M-6 -9.6 Q-3 0 -6 9.6 M2 -10.4 Q5 0 2 10.4" stroke="#2a1f14" stroke-width="4" fill="none"/><circle cx="15" cy="-1" r="6" fill="#2a1f14"/><path d="M-16 0 l-6 1.5" stroke="#2a1f14" stroke-width="2.5" stroke-linecap="round"/><path d="M18 -6 q4 -8 9 -8 M17 -5 q7 -4 11 -2" stroke="#2a1f14" stroke-width="1.4" fill="none" stroke-linecap="round"/></g><path d="M240 300 q40 -60 60 -50 M470 230 q20 40 50 90" stroke="#7f430a" stroke-opacity=".35" stroke-width="2" stroke-dasharray="3 8" fill="none"/></svg>